<svg xmlns="http://www.w3.org/2000/svg" viewBox="0 0 22 8" width="22" height="8" fill="none">
  <path fill="currentColor" d="M21.6747 3.29002L18.3757 0.293729C18.1686 0.105657 17.8877 0 17.5949 0C17.3021 0 17.0212 0.105657 16.8141 0.293729C16.6071 0.4818 16.4907 0.736879 16.4907 1.00285C16.4907 1.26882 16.6071 1.5239 16.8141 1.71198L18.2437 3.00038H1.09968C0.808028 3.00038 0.528319 3.10561 0.322089 3.29291C0.115859 3.48022 0 3.73426 0 3.99915C0 4.26404 0.115859 4.51808 0.322089 4.70538C0.528319 4.89269 0.808028 4.99791 1.09968 4.99791H18.2437L16.8141 6.28632C16.7111 6.37917 16.6292 6.48963 16.5734 6.61134C16.5176 6.73305 16.4888 6.8636 16.4888 6.99544C16.4888 7.12729 16.5176 7.25784 16.5734 7.37955C16.6292 7.50126 16.7111 7.61172 16.8141 7.70457C16.9164 7.79818 17.038 7.87248 17.172 7.92319C17.306 7.97389 17.4497 8 17.5949 8C17.7401 8 17.8838 7.97389 18.0178 7.92319C18.1518 7.87248 18.2734 7.79818 18.3757 7.70457L21.6747 4.70827C21.7778 4.61542 21.8596 4.50496 21.9154 4.38325C21.9713 4.26154 22 4.131 22 3.99915C22 3.8673 21.9713 3.73675 21.9154 3.61505C21.8596 3.49334 21.7778 3.38287 21.6747 3.29002Z" />
</svg>