<svg xmlns="http://www.w3.org/2000/svg" width="26" height="25" viewBox="0 0 26 25" fill="none">
<g clip-path="url(#clip0_1138_540)">
<path d="M25.5 12.5C25.5 5.59644 19.9036 0 13 0C6.09644 0 0.5 5.59644 0.5 12.5C0.5 18.739 5.07104 23.9104 11.0469 24.8481V16.1133H7.87305V12.5H11.0469V9.74609C11.0469 6.61328 12.9131 4.88281 15.7683 4.88281C17.1355 4.88281 18.5664 5.12695 18.5664 5.12695V8.20312H16.9902C15.4375 8.20312 14.9531 9.16675 14.9531 10.1562V12.5H18.4199L17.8657 16.1133H14.9531V24.8481C20.929 23.9104 25.5 18.739 25.5 12.5Z" fill="#475569"/>
</g>
<defs>
<clipPath id="clip0_1138_540">
<rect width="25" height="25" fill="white" transform="translate(0.5)"/>
</clipPath>
</defs>
</svg>