<svg xmlns="http://www.w3.org/2000/svg" viewBox="0 0 26 25" width="26" height="25" fill="none">
  <path fill="currentColor" fill-rule="evenodd" clip-rule="evenodd" d="M13 0C6.09625 0 0.5 5.605 0.5 12.5212C0.5 18.0525 4.08125 22.7463 9.04875 24.4012C9.67375 24.5163 9.90125 24.13 9.90125 23.7975C9.90125 23.5012 9.89125 22.7125 9.885 21.6687C6.4075 22.425 5.67375 19.99 5.67375 19.99C5.10625 18.5425 4.28625 18.1575 4.28625 18.1575C3.15125 17.3825 4.3725 17.3975 4.3725 17.3975C5.62625 17.485 6.28625 18.6875 6.28625 18.6875C7.40125 20.6 9.2125 20.0475 9.92375 19.7275C10.0387 18.9187 10.3612 18.3675 10.7188 18.055C7.94375 17.7388 5.025 16.6637 5.025 11.8663C5.025 10.5 5.5125 9.38125 6.31125 8.50625C6.1825 8.19 5.75375 6.91625 6.43375 5.19375C6.43375 5.19375 7.48375 4.85625 9.87125 6.47625C10.891 6.19814 11.943 6.05649 13 6.055C14.0625 6.06 15.1312 6.19875 16.13 6.47625C18.5163 4.85625 19.5637 5.1925 19.5637 5.1925C20.2463 6.91625 19.8162 8.19 19.6887 8.50625C20.4888 9.38125 20.9737 10.5 20.9737 11.8663C20.9737 16.6763 18.05 17.735 15.2662 18.045C15.715 18.4313 16.1138 19.195 16.1138 20.3638C16.1138 22.0363 16.0988 23.3875 16.0988 23.7975C16.0988 24.1325 16.3237 24.5225 16.9587 24.4C19.4479 23.5651 21.6117 21.9691 23.1444 19.8376C24.677 17.706 25.5011 15.1466 25.5 12.5212C25.5 5.605 19.9025 0 13 0Z" />
</svg>