<svg viewBox="0 0 40 40" xmlns="http://www.w3.org/2000/svg" fill="none">
  <path fill="black" d="M30.8205 16.2774C30.7815 16.2891 30.7698 16.3516 30.7737 16.4766C30.7776 16.5781 30.801 16.6875 30.8283 16.7227C30.8557 16.7578 31.0276 16.8945 31.2112 17.0234C31.3948 17.1484 31.5705 17.2852 31.6018 17.3242C31.633 17.3633 31.7815 17.4922 31.9338 17.6133C32.0862 17.7383 32.383 17.9648 32.5979 18.1172C32.8127 18.2734 33.0158 18.4023 33.0471 18.3984C33.0783 18.3984 33.1448 18.3711 33.1916 18.3398C33.2424 18.3086 33.301 18.2461 33.3205 18.2031C33.3479 18.1484 33.344 18.0898 33.3049 18C33.2776 17.9297 33.176 17.7969 33.0823 17.7109C32.9885 17.6211 32.8127 17.4805 32.6916 17.3984C32.5744 17.3125 32.3088 17.1211 32.1057 16.9688C31.9026 16.8125 31.6057 16.6172 31.4455 16.5313C31.2854 16.4414 31.0901 16.3477 31.0158 16.3164C30.9377 16.2852 30.8518 16.2695 30.8205 16.2774Z" />
  <path fill="black" d="M31.3047 15.7812C31.2617 15.8008 31.2109 15.8672 31.1953 15.9258C31.1758 15.9922 31.1797 16.0703 31.207 16.1211C31.2344 16.1758 31.375 16.2695 31.5742 16.3633C31.75 16.4453 32.043 16.5586 32.2266 16.6133C32.4102 16.668 32.8477 16.8125 33.2031 16.9297C33.5586 17.0469 34.0195 17.1875 34.2305 17.2422C34.4375 17.2969 34.6719 17.3437 34.7461 17.3437C34.8438 17.3437 34.9141 17.3125 34.9805 17.2461C35.0352 17.1914 35.0781 17.1016 35.0781 17.0391C35.0781 16.9766 35.043 16.8984 34.9922 16.8515C34.9414 16.8047 34.8828 16.7578 34.8633 16.7461C34.8438 16.7344 34.5352 16.6367 34.1797 16.5312C33.8242 16.4219 33.2461 16.2539 32.8906 16.1523C32.5352 16.0547 32.1133 15.9336 31.9531 15.8789C31.793 15.8281 31.5977 15.7773 31.5234 15.7656C31.4492 15.7578 31.3516 15.7617 31.3047 15.7812Z" />
  <path fill="black" d="M22.1092 15.7617C21.8201 15.8594 21.3084 16 20.9763 16.0781C20.6443 16.1563 20.1404 16.2813 19.8631 16.3555C19.5857 16.4336 19.1795 16.5508 18.9646 16.6211C18.7498 16.6914 18.4256 16.7734 18.242 16.8086C18.0584 16.8438 17.8123 16.8789 17.6951 16.8945C17.5779 16.9063 17.4021 16.9531 17.3045 17.0039C17.1912 17.0586 17.1013 17.1406 17.0506 17.2344C16.9881 17.3477 16.9803 17.3984 17.0115 17.4883C17.0388 17.5586 17.1053 17.625 17.2068 17.6719C17.3592 17.7422 17.367 17.7422 17.5779 17.6641C17.6951 17.6172 18.1287 17.5 18.5349 17.4063C18.9412 17.3086 19.6443 17.1328 20.0974 17.0156C20.5467 16.8984 21.1834 16.7109 21.5037 16.6016C21.8279 16.4961 22.2459 16.3438 22.4412 16.2695C22.6365 16.1953 22.8396 16.0859 22.9021 16.0274C22.9685 15.9609 23.0115 15.8789 23.0076 15.8125C23.0076 15.75 22.9803 15.6758 22.949 15.6445C22.9178 15.6133 22.8318 15.5859 22.7615 15.5899C22.6951 15.5899 22.3982 15.668 22.1092 15.7617Z" />
  <path fill="black" d="M18.3008 15.0664C17.8516 15.0781 17.7422 15.0938 17.6836 15.1484C17.6485 15.1836 17.6055 15.2578 17.5938 15.3125C17.5821 15.3672 17.5977 15.4609 17.625 15.5195C17.6524 15.5781 17.7032 15.6367 17.7344 15.6484C17.7657 15.6641 18.3282 15.6797 18.9844 15.6836C19.6407 15.6914 20.5352 15.6836 20.9766 15.6641C21.418 15.6445 21.9102 15.6016 22.0703 15.5664C22.3008 15.5195 22.3867 15.4844 22.4727 15.3906C22.5391 15.3164 22.5742 15.2383 22.5703 15.1758L22.5586 15.082C19.6836 15.0586 18.6016 15.0586 18.3008 15.0664Z" />
  <path fill="black" d="M31.9766 14.8945C31.9219 14.9531 31.8789 15.0352 31.875 15.0859C31.875 15.1367 31.9023 15.207 31.9414 15.2422C31.9805 15.2774 32.0547 15.3242 32.1094 15.3438C32.1641 15.3633 32.6875 15.3867 33.2734 15.3945L34.3437 15.4102C34.4883 15.2422 34.5312 15.1641 34.5312 15.125C34.5352 15.0899 34.5039 15.0156 34.4648 14.9649L34.3945 14.8711C32.9102 14.8594 32.3906 14.8438 32.2813 14.8281C32.0938 14.7969 32.0703 14.8047 31.9766 14.8945Z" />
  <path fill="black" d="M19.7187 11.2539C19.5586 11.2695 19.3984 11.3164 19.2617 11.3906C19.1367 11.457 19 11.5703 18.9375 11.6602C18.875 11.7461 18.8047 11.8789 18.7812 11.9531C18.7539 12.0273 18.7344 12.2344 18.7305 12.4102C18.7305 12.668 18.7461 12.7461 18.8008 12.8008C18.8633 12.8633 18.9844 12.8711 20.207 12.8828C20.9414 12.8906 21.582 12.8867 21.6289 12.875C21.6797 12.8633 21.7188 12.8242 21.7188 12.793C21.7188 12.7617 21.6094 12.5313 21.4727 12.2773C21.3398 12.0273 21.1602 11.7461 21.0742 11.6523C20.9883 11.5547 20.8281 11.4336 20.7227 11.3828C20.6133 11.332 20.4023 11.2773 20.2461 11.2617C20.0898 11.2422 19.8516 11.2422 19.7187 11.2539Z" />
  <path fill="black" d="M17.7538 5.54687C17.4296 5.5625 16.9022 5.60547 16.5819 5.64062C16.2577 5.67578 15.7499 5.75 15.4491 5.80468C15.1483 5.85937 14.664 5.96093 14.3749 6.03515C14.0858 6.10547 13.6444 6.23437 13.3983 6.32031C13.1522 6.40625 12.7187 6.5664 12.4413 6.67578C12.164 6.78906 11.703 7.0039 11.4257 7.15234C11.1483 7.30468 10.7499 7.54296 10.5468 7.67578C10.3437 7.8125 9.9999 8.07031 9.78506 8.2539C9.57021 8.43359 9.20693 8.77343 8.98037 9.00781C8.75381 9.24218 8.42178 9.62109 8.23818 9.84765C8.0585 10.0781 7.83193 10.4023 7.73818 10.5703C7.64443 10.7422 7.47256 11.0273 7.35928 11.2109C7.246 11.3945 6.996 11.8594 6.80459 12.2461C6.61318 12.6328 6.32803 13.2852 6.17178 13.6914C6.01553 14.0977 5.82021 14.6641 5.73818 14.9414C5.66006 15.2187 5.53896 15.6523 5.47256 15.8984C5.40615 16.1445 5.28506 16.6992 5.19912 17.1289C5.11318 17.5586 4.96084 18.3008 4.86318 18.7812C4.76553 19.2578 4.6249 20.0234 4.55068 20.4805C4.47646 20.9336 4.39443 21.5273 4.371 21.7969C4.34365 22.0859 4.33584 22.5977 4.34756 23.0469C4.35928 23.5273 4.39053 23.918 4.42959 24.1016C4.46475 24.2617 4.53115 24.5156 4.57412 24.668C4.621 24.8203 4.73428 25.1094 4.83193 25.3125C4.92568 25.5156 5.09365 25.832 5.20303 26.0156C5.3124 26.1992 5.52334 26.5039 5.67568 26.6992C5.82803 26.8945 6.16396 27.2851 6.42178 27.5703C6.6835 27.8594 7.04287 28.2227 7.22646 28.375C7.41006 28.5312 7.74209 28.8086 7.96865 28.9883C8.19521 29.1641 8.58975 29.457 8.84756 29.6328C9.10537 29.8047 9.51553 30.0664 9.75381 30.2109C9.996 30.3516 10.4882 30.6172 10.8476 30.7969C11.2108 30.9766 11.6718 31.1953 11.8749 31.2812C12.078 31.3672 12.3241 31.4609 12.4218 31.4961C12.5194 31.5312 12.789 31.6211 13.0272 31.6953C13.2655 31.7695 13.7812 31.9258 14.1796 32.043C14.578 32.1641 15.0429 32.2891 15.2147 32.3242C15.3866 32.3594 15.6601 32.418 15.8202 32.4609C15.9804 32.5 16.3944 32.5742 16.7382 32.6289C17.0819 32.6836 17.5038 32.7461 17.6757 32.7695C17.8476 32.793 18.1366 32.8281 18.3202 32.8476C18.5038 32.8711 18.9335 32.9062 19.2772 32.9297C19.621 32.9531 20.1171 32.9883 20.3788 33.0117C20.6444 33.0312 21.246 33.0469 21.7187 33.0469C22.1913 33.0469 22.6054 33.0391 22.6366 33.0273C22.6679 33.0156 22.6952 32.9766 22.6952 32.9375C22.6952 32.9023 22.5976 32.7305 22.4804 32.5586C22.3671 32.3867 22.039 31.9922 21.7577 31.6797C21.4726 31.3672 21.0468 30.9141 20.8085 30.6719C20.5663 30.4258 19.9569 29.8281 19.453 29.3437C18.9491 28.8555 18.3124 28.2617 18.0429 28.0273C17.7733 27.793 17.3163 27.3906 17.0272 27.1406C16.7382 26.8867 16.3554 26.5664 16.1718 26.4258C15.9882 26.2812 15.5429 25.9414 15.1757 25.668C14.8085 25.3945 14.2147 24.9531 13.8476 24.6875C13.4804 24.4219 12.9101 24.0117 12.578 23.7773C12.246 23.543 11.8593 23.2617 11.7187 23.1484C11.578 23.0351 11.371 22.8203 11.2616 22.6719C11.1483 22.5234 10.9687 22.2266 10.8632 22.0117C10.7538 21.7969 10.6171 21.4648 10.5507 21.2695C10.4882 21.0742 10.3944 20.7227 10.3476 20.4883C10.2772 20.1367 10.2577 19.9219 10.2577 19.3164C10.2577 18.8711 10.2772 18.4414 10.3085 18.2422C10.3358 18.0586 10.4101 17.6992 10.4726 17.4414C10.539 17.1641 10.6874 16.7227 10.8319 16.3672C10.9726 16.0352 11.1054 15.6914 11.1327 15.6055C11.1601 15.5195 11.2069 15.4141 11.2382 15.3711C11.2655 15.3281 11.289 15.2812 11.289 15.2656C11.289 15.2461 11.039 15.1133 10.7343 14.9648C10.4257 14.8164 10.0351 14.6016 9.86318 14.4883C9.69131 14.375 9.40225 14.1328 9.21865 13.9492C9.02334 13.75 8.83584 13.5156 8.76162 13.3789C8.69521 13.25 8.60146 13.0117 8.55068 12.8516C8.48037 12.625 8.46084 12.4648 8.46084 12.1289C8.46084 11.7305 8.47256 11.6641 8.61709 11.25C8.71865 10.9453 8.83193 10.707 8.96475 10.5078C9.07021 10.3477 9.28115 10.0898 9.4335 9.9414C9.58193 9.78906 9.83193 9.59375 9.98037 9.5039C10.1327 9.41406 10.3944 9.29687 10.5663 9.23828C10.7382 9.18359 11.0624 9.12109 11.289 9.09765C11.5155 9.07421 11.7968 9.07031 11.914 9.08203C12.0312 9.09765 12.2343 9.14453 12.3632 9.1875C12.4921 9.23437 12.6757 9.30859 12.7733 9.35546C12.871 9.40625 13.0272 9.51171 13.121 9.59765C13.2147 9.67968 13.3437 9.83203 13.4022 9.9414C13.4647 10.0469 13.5155 10.168 13.5155 10.2031C13.5155 10.2656 13.4921 10.2695 13.3319 10.2422C13.2265 10.2266 12.8632 10.2148 12.5194 10.2148C11.953 10.2148 11.8632 10.2266 11.5624 10.3203C11.3554 10.3867 11.121 10.4961 10.9374 10.6172C10.7772 10.7227 10.578 10.8828 10.4999 10.9727C10.4179 11.0586 10.3046 11.2266 10.2499 11.3359C10.1913 11.4492 10.121 11.6836 10.0897 11.8555C10.0546 12.0273 10.039 12.2539 10.0507 12.3633C10.0624 12.4687 10.0976 12.6562 10.1327 12.7734C10.164 12.8906 10.2655 13.0977 10.3515 13.2305C10.4556 13.3945 10.6301 13.5768 10.8749 13.7773C11.0741 13.9453 11.3866 14.1641 11.5663 14.2656C11.746 14.3633 11.9179 14.4336 11.9452 14.4219C11.9726 14.4062 12.0116 14.3398 12.0312 14.2773C12.0507 14.2148 12.1483 14.0469 12.2499 13.9062C12.3515 13.7656 12.578 13.4961 12.7499 13.3047C12.9257 13.1133 13.1874 12.8398 13.3397 12.6953C13.4921 12.5508 13.7343 12.3281 13.8866 12.1953C14.039 12.0664 14.3358 11.8437 14.5507 11.7031C14.7655 11.5586 15.1249 11.3477 15.3515 11.2305C15.578 11.1172 15.9999 10.9297 16.289 10.8203C16.578 10.7109 16.914 10.5664 17.0312 10.5039C17.1483 10.4414 17.4062 10.2617 17.6015 10.1055C17.7968 9.95312 18.1327 9.67578 18.3437 9.5C18.5546 9.32031 18.8632 9.07812 19.0233 8.96484C19.1835 8.85156 19.4491 8.6875 19.6093 8.59765C19.7694 8.51172 20.0351 8.39453 20.1952 8.33984C20.3554 8.28515 20.7265 8.19531 21.0155 8.14062C21.4179 8.0664 21.7304 8.03515 22.3241 8.01953C22.789 8.00781 23.2851 8.01562 23.5546 8.03906C23.8085 8.0664 24.2812 8.15234 24.6483 8.24609C25.0038 8.33203 25.4882 8.47656 25.7226 8.5625C25.9569 8.64843 26.4257 8.85937 26.7577 9.02734C27.0897 9.19531 27.5312 9.44921 27.7421 9.59765C27.9491 9.74218 28.4413 10.1094 28.8358 10.4062C29.2616 10.7305 29.6601 11 29.8241 11.0742C29.9765 11.1445 30.1679 11.2227 30.2538 11.25C30.3397 11.2773 30.5312 11.3633 30.6835 11.4375C30.8358 11.5117 31.0546 11.6367 31.1718 11.7187C31.289 11.7969 31.4491 11.9336 31.5233 12.0156C31.6015 12.1016 31.7382 12.2891 31.828 12.4414C31.9179 12.5937 32.0272 12.8203 32.0741 12.9492C32.1171 13.0781 32.1718 13.3047 32.1913 13.457C32.2108 13.6094 32.2499 13.7539 32.2733 13.7812C32.3007 13.8086 32.3554 13.832 32.3944 13.8281C32.4296 13.8281 32.496 13.7812 32.539 13.7187C32.5819 13.6602 32.6366 13.5312 32.6562 13.4258C32.6796 13.3242 32.6952 13.168 32.6952 13.0742C32.6952 12.9844 32.6601 12.75 32.6132 12.5586C32.5702 12.3672 32.4921 12.1289 32.4335 12.0312C32.3788 11.9336 32.1913 11.7148 32.0155 11.5391C31.7655 11.293 31.6288 11.1914 31.3671 11.0625C31.1835 10.9727 30.9296 10.875 30.8007 10.8437C30.6718 10.8125 30.4647 10.7695 30.3437 10.7461C30.1288 10.707 30.1054 10.6875 29.8944 10.4375C29.7733 10.293 29.4257 9.92578 29.1249 9.61718C28.8202 9.30859 28.4452 8.95312 28.2929 8.82421C28.1366 8.69921 27.996 8.55468 27.9843 8.5039C27.9713 8.44661 28.0012 8.36067 28.0741 8.24609C28.1601 8.10547 28.246 8.03906 28.496 7.91406C28.7968 7.75781 28.8085 7.75 28.8202 7.60546C28.828 7.48828 28.8046 7.4375 28.703 7.33593C28.5858 7.22265 28.5585 7.21484 28.3749 7.23047C28.2382 7.24218 28.1327 7.28125 28.0351 7.35156C27.9569 7.41406 27.8046 7.58203 27.6952 7.73437C27.565 7.91666 27.4739 8.00781 27.4218 8.00781C27.3788 8.00781 27.2343 7.9414 27.1015 7.85937C26.9647 7.77343 26.6991 7.60547 26.5038 7.48437C26.3085 7.35937 25.9335 7.14843 25.664 7.01172C25.3944 6.8789 24.9296 6.66797 24.6288 6.54297C24.328 6.41797 23.9765 6.28515 23.8476 6.24218C23.7187 6.20312 23.3749 6.10937 23.0858 6.03906C22.7968 5.96484 22.3554 5.86718 22.1093 5.82422C21.8632 5.78125 21.5272 5.73047 21.3671 5.70703C21.2069 5.68359 20.7851 5.64062 20.4296 5.60937C20.0741 5.57812 19.4608 5.54297 19.0624 5.53515C18.664 5.52343 18.0741 5.53125 17.7538 5.54687Z" />
  <path fill="black" d="M18.6524 1.36718C18.3516 1.3828 17.9453 1.41796 17.7539 1.4453C17.5625 1.46874 17.2344 1.51562 17.0313 1.55077C16.8281 1.58202 16.5391 1.6328 16.3867 1.66405C16.2344 1.6953 15.9024 1.77343 15.6445 1.83984C15.3867 1.90234 14.9727 2.01952 14.7266 2.09765C14.4805 2.17187 13.9102 2.37499 13.457 2.54296C13.0039 2.71484 12.4063 2.96484 12.1289 3.10155C11.8516 3.23437 11.3281 3.5078 10.9649 3.70312C10.6055 3.90233 10.168 4.15233 9.99219 4.26562C9.8125 4.37499 9.36719 4.68749 9.00391 4.96093C8.63282 5.23827 8.00391 5.76562 7.58204 6.15624C7.16407 6.53905 6.53907 7.16405 6.19532 7.54296C5.84766 7.91796 5.39063 8.46483 5.17188 8.7539C4.95313 9.04296 4.63672 9.48827 4.46485 9.74608C4.28906 10.0039 3.99219 10.4961 3.80469 10.8398C3.61328 11.1836 3.3125 11.7734 3.14063 12.1484C2.96484 12.5234 2.74219 13.0351 2.64453 13.2812C2.54297 13.5273 2.35547 14.0273 2.22656 14.3945C2.09375 14.7617 1.88281 15.4648 1.75781 15.957C1.63281 16.4492 1.49609 17.0586 1.44922 17.3047C1.40625 17.5508 1.33203 18.0351 1.28516 18.3789C1.21094 18.8984 1.19922 19.1797 1.19922 20.0586C1.19922 20.6406 1.22266 21.289 1.24609 21.5039C1.26953 21.7187 1.3125 22.0351 1.33203 22.207C1.35547 22.3789 1.42578 22.8281 1.48828 23.2031C1.55078 23.5781 1.65625 24.1055 1.71875 24.375C1.78516 24.6445 1.94531 25.1875 2.07813 25.5859C2.21094 25.9844 2.39453 26.5039 2.48828 26.7383C2.58594 26.9726 2.80469 27.4648 2.98047 27.832C3.15235 28.1992 3.47266 28.7851 3.6836 29.1406C3.89844 29.4961 4.14453 29.8906 4.23047 30.0195C4.31641 30.1484 4.50391 30.4023 4.64453 30.5859C4.78516 30.7695 5.07032 31.1289 5.27344 31.3867C5.47657 31.6445 5.875 32.1015 6.15625 32.4023C6.4375 32.7031 6.88672 33.1601 7.15235 33.4179C7.41797 33.6797 7.75 33.9844 7.89063 34.1015C8.03125 34.2148 8.23047 34.375 8.33985 34.4531C8.44532 34.5312 8.76172 34.7539 9.04297 34.9492C9.32422 35.1406 9.83985 35.4765 10.1953 35.6914C10.5508 35.9062 11.1367 36.2304 11.5039 36.4179C11.8711 36.6015 12.3438 36.832 12.5586 36.9258C12.7734 37.0234 13.1524 37.1719 13.3984 37.2578C13.6445 37.3476 14.1211 37.4961 14.4531 37.5937C14.7852 37.6914 15.3672 37.8398 15.7422 37.9258C16.1172 38.0078 16.5391 38.0976 16.6797 38.1172C16.8203 38.1406 17.1719 38.1875 17.4609 38.2187C17.75 38.2539 18.2969 38.2969 18.6719 38.3203C19.0469 38.3437 19.75 38.3633 20.2344 38.3633C20.7188 38.3672 21.3516 38.3476 21.6406 38.3242C21.9297 38.3008 22.3086 38.2617 22.4805 38.2422C22.6524 38.2187 22.9609 38.1719 23.1641 38.1406C23.3672 38.1054 23.7891 38.0312 24.1016 37.9687C24.4141 37.9062 24.9297 37.7812 25.2539 37.6914C25.5742 37.6054 26.0078 37.4804 26.211 37.414C26.4141 37.3515 26.9141 37.1601 27.3242 36.9922C27.7344 36.8242 28.1797 36.6328 28.3203 36.5703C28.461 36.5078 28.8203 36.3242 29.1211 36.164C29.4219 36.0039 29.9297 35.707 30.2539 35.5078C30.5742 35.3125 30.9453 35.0781 31.0742 34.9883C31.2031 34.9023 31.4141 34.75 31.543 34.6523C31.6719 34.5547 31.9961 34.289 32.2656 34.0625C32.5313 33.8359 33.125 33.2734 33.586 32.8125L34.418 31.9726C37.6094 31.9961 38.5742 31.9922 38.625 31.9765C38.6719 31.9648 38.7071 31.9297 38.6992 31.8984C38.6953 31.8672 38.3203 31.4961 37.8711 31.0742C37.4219 30.6523 36.918 30.1992 36.7578 30.0703C36.5977 29.9414 36.2969 29.75 36.0938 29.6484C35.8906 29.5469 35.4414 29.3594 35.0977 29.2383C34.7539 29.1133 34.1563 28.9101 33.7695 28.7851C33.3828 28.6562 32.8633 28.5 32.6172 28.4336C32.3711 28.3672 32.125 28.289 32.0703 28.2617L31.9727 28.2109C32.1524 28.1758 32.3555 28.1836 32.5391 28.2031C32.7227 28.2265 33.4844 28.2578 34.2383 28.2773C34.9883 28.2969 36.4453 28.3281 37.4688 28.3476C39.3086 28.3789 39.3321 28.3789 39.3594 28.3008C39.3828 28.2344 39.2969 28.1328 38.8438 27.6992C38.5469 27.414 38.2461 27.1445 38.1836 27.1054C38.0703 27.039 37.918 27.0351 35.0196 27.0586C32.9063 27.0742 31.7383 27.0664 31.211 27.0351C30.793 27.0117 30.3008 26.957 30.1172 26.9179C29.9336 26.8789 29.6016 26.7851 29.375 26.707C29.1485 26.6328 28.8086 26.4922 28.6133 26.3945C28.418 26.3008 28.0508 26.082 27.793 25.9101C27.457 25.6875 27.1836 25.457 26.836 25.1133C26.5625 24.8476 26.2735 24.5312 26.1836 24.414C26.0977 24.2969 25.957 24.0586 25.8711 23.8867C25.7813 23.7148 25.6719 23.4414 25.6211 23.2812C25.5508 23.0469 25.5313 22.9023 25.5352 22.539C25.5352 22.293 25.5586 22.0117 25.582 21.914C25.6055 21.8164 25.6758 21.625 25.7305 21.4844C25.7852 21.3437 25.8555 21.2031 25.8828 21.1719C25.9219 21.125 26.082 21.1055 26.6094 21.0859C27.0391 21.0664 27.4063 21.0312 27.6172 20.9804C27.8008 20.9414 28.0625 20.8672 28.2031 20.8203C28.3438 20.7734 28.5977 20.6719 28.7695 20.5898C28.9414 20.5117 29.2149 20.3555 29.375 20.2461C29.5352 20.1406 29.8438 19.8945 30.0547 19.7031C30.2696 19.5117 30.5391 19.2344 30.6524 19.082C30.7696 18.9297 30.9531 18.6328 31.0586 18.418C31.168 18.2031 31.2656 17.9531 31.2813 17.8594C31.3008 17.7383 31.2969 17.6953 31.2578 17.6953C31.2344 17.6953 31.1719 17.75 31.1211 17.8125C31.0742 17.8789 30.9649 17.9648 30.8789 18.0078C30.793 18.0469 30.6172 18.0898 30.4883 18.1055C30.3438 18.1211 30.1641 18.1133 30.0195 18.082C29.8281 18.043 29.7578 18.0039 29.6172 17.8633C29.5235 17.7695 29.3867 17.5547 29.3008 17.375C29.2149 17.1953 29.1289 16.957 29.1055 16.8476C29.082 16.7344 29.0625 16.5703 29.0625 16.4844C29.0625 16.3984 29.0899 16.2734 29.1211 16.2109C29.1602 16.1328 29.3321 15.9961 29.6172 15.8086C29.8594 15.6484 30.1758 15.414 30.3203 15.2812C30.5117 15.1094 30.6367 15.0234 30.7656 14.9922C30.8867 14.957 30.9688 14.9062 31.0078 14.8437C31.0586 14.7578 31.0625 14.707 31.0196 14.4531C30.9844 14.2344 30.9844 14.1484 31.0156 14.1211C31.0391 14.0976 31.1328 14.0469 31.2188 14.0039C31.3242 13.9531 31.4063 13.8711 31.461 13.7695C31.5274 13.6445 31.543 13.543 31.543 13.2812C31.543 13.043 31.5196 12.8711 31.4531 12.6758C31.3985 12.5039 31.3125 12.3359 31.2188 12.2305C31.1406 12.1367 31.0039 12.0234 30.918 11.9805C30.832 11.9375 30.6641 11.8711 30.5469 11.8281C30.4297 11.7891 30.2188 11.7383 30.0781 11.7148C29.9375 11.6914 29.6836 11.6601 29.5117 11.6406C29.3399 11.625 28.9024 11.625 28.5352 11.6406C28.168 11.6562 27.7305 11.6992 27.5586 11.7383C27.3867 11.7734 27.0625 11.8828 26.836 11.9766C26.6094 12.0742 26.3086 12.2383 26.1641 12.3359C26.0235 12.4375 25.7774 12.6328 25.6172 12.7773C25.4531 12.9219 25.293 13.1055 25.2461 13.207C25.1953 13.3008 25.1563 13.4375 25.1563 13.5078C25.1563 13.5937 25.1953 13.6758 25.2813 13.7734C25.3828 13.8828 25.4492 13.918 25.586 13.9336C25.7461 13.9531 25.7774 13.9414 25.9375 13.8086C26.0352 13.7305 26.1485 13.6601 26.1914 13.6523C26.2344 13.6445 26.4024 13.6094 26.5625 13.5742C26.7227 13.5391 26.8985 13.5078 26.9531 13.5039C27.043 13.4961 27.0508 13.5117 27.0625 13.6914C27.0742 13.8711 27.0586 13.9062 26.8945 14.1211C26.7969 14.25 26.707 14.4023 26.6992 14.4648C26.6875 14.5273 26.707 14.6172 26.7461 14.6836C26.7852 14.7422 26.9375 14.9023 27.0899 15.0351C27.2422 15.1719 27.6016 15.4258 27.8906 15.5976C28.3164 15.8594 28.4219 15.9375 28.4297 16.0156C28.4375 16.0703 28.375 16.25 28.2852 16.4258C28.1914 16.6172 28.0352 16.8437 27.8828 17.0078C27.7461 17.1562 27.5391 17.3437 27.4219 17.4219C27.3047 17.5039 27.0938 17.625 26.9531 17.6953C26.8125 17.7656 26.5938 17.8633 26.4649 17.914C26.336 17.9609 26.0742 18.0312 25.8789 18.0664C25.6836 18.1015 25.4063 18.1445 25.2539 18.168C25.1016 18.1875 24.9492 18.2109 24.9102 18.2226C24.875 18.2344 24.8438 18.2695 24.8438 18.3008C24.8438 18.3437 24.9063 18.3672 25.086 18.3828C25.2227 18.3945 25.711 18.3984 26.1719 18.3867C26.6328 18.3789 27.2305 18.3398 27.5 18.3047C27.7695 18.2695 28.1563 18.2031 28.3594 18.1562L28.7305 18.0703C29.4063 18.414 29.5664 18.5156 29.5625 18.5469C29.5547 18.5781 29.375 18.6562 29.1406 18.7265C28.9141 18.7969 28.5117 18.9336 28.2422 19.0312C27.9727 19.1289 27.5078 19.2734 27.207 19.3476C26.9063 19.4258 26.3867 19.543 26.0547 19.6055C25.7227 19.668 25.3008 19.7344 25.1172 19.75C24.9219 19.7656 24.6172 19.7578 24.375 19.7305C24.1484 19.7031 23.7891 19.6445 23.5742 19.6015C23.3594 19.5586 22.9727 19.4453 22.7149 19.3515C22.457 19.2578 22.1016 19.0937 21.9219 18.9922C21.7461 18.8906 21.4258 18.6601 21.2109 18.4765C20.9883 18.289 20.8203 18.1133 20.8203 18.0781C20.8203 18.0273 21.0352 17.9023 21.6094 17.6211C22.0469 17.4101 22.543 17.1719 22.7149 17.0898C22.8867 17.0117 23.0938 16.8945 23.1719 16.832C23.2539 16.7695 23.3281 16.6875 23.3399 16.6523C23.3516 16.6133 23.3438 16.5351 23.3203 16.4765C23.3008 16.414 23.2461 16.3515 23.2031 16.3281C23.1445 16.2969 23.0625 16.3125 22.8789 16.3828C22.7461 16.4336 22.3984 16.5859 22.1094 16.7187C21.8203 16.8515 21.3711 17.043 21.1133 17.1484C20.8555 17.2539 20.4688 17.418 20.2539 17.5195C20.0391 17.6211 19.5274 17.8633 19.1211 18.0664C18.7149 18.2656 18.2305 18.5 18.0469 18.5859C17.8633 18.6719 17.5313 18.8242 17.3047 18.9219C17.0781 19.0234 16.7461 19.1875 16.5625 19.289C16.3789 19.3867 16.1992 19.5 16.1602 19.539C16.1211 19.582 16.0938 19.668 16.0938 19.7656C16.0938 19.8867 16.1211 19.9492 16.2109 20.039C16.3086 20.1367 16.3516 20.1523 16.4531 20.1328C16.5234 20.1211 17.1953 19.8086 17.9492 19.4336C18.6992 19.0586 19.3281 18.75 19.3438 18.75C19.3633 18.75 19.5899 18.6445 19.8516 18.5156C20.1172 18.3867 20.3555 18.2812 20.3789 18.2812C20.4063 18.2812 20.4727 18.3476 20.5235 18.4297C20.5703 18.5078 20.7188 18.6719 20.8438 18.789C20.9727 18.9062 21.207 19.1094 21.3672 19.2422C21.5274 19.3711 21.7617 19.543 21.8828 19.6211C22.0078 19.6992 22.1094 19.793 22.1094 19.8242C22.1094 19.8594 22.0625 19.8906 21.9805 19.8984C21.9141 19.9101 21.793 19.9258 21.7188 19.9336C21.6445 19.9453 21.4531 19.9883 21.2969 20.0351C21.1445 20.082 21.0156 20.1406 21.0156 20.168C21.0156 20.1914 21.125 20.2461 21.2578 20.2851C21.3945 20.3281 22.0313 20.4961 22.6758 20.6679C23.3203 20.8359 23.875 21 23.9063 21.0351C23.957 21.0859 23.957 21.1211 23.8906 21.3359C23.832 21.5312 23.8164 21.7031 23.8164 22.1875C23.8164 22.6953 23.832 22.8789 23.9219 23.3203C23.9805 23.6094 24.0742 23.9883 24.1289 24.1601C24.1836 24.332 24.3242 24.7031 24.4414 24.9805C24.5586 25.2578 24.7617 25.6914 24.8906 25.9375C25.0195 26.1836 25.2735 26.6054 25.457 26.875C25.6445 27.1445 25.9063 27.5117 26.0469 27.6953C26.1875 27.8789 26.5664 28.2929 26.8906 28.6133C27.2149 28.9375 27.668 29.3515 27.8906 29.5351C28.1172 29.7187 28.4219 29.9609 28.5742 30.0664C28.7266 30.1758 29.0703 30.4062 29.3438 30.582C29.6211 30.7578 30.0586 31.0078 30.3203 31.1406C30.586 31.2773 30.9219 31.4414 31.0664 31.5039C31.2266 31.5742 31.3281 31.6406 31.3203 31.6719C31.3125 31.6992 31.1524 31.7929 30.957 31.8789C30.7617 31.9648 30.4492 32.0976 30.2539 32.1758C30.0586 32.25 29.6211 32.414 29.2774 32.5351C28.9336 32.6601 28.4961 32.8125 28.3008 32.8711C28.1055 32.9297 27.711 33.0429 27.4219 33.125C27.1328 33.207 26.7735 33.3047 26.6211 33.3398C26.4688 33.375 26.1641 33.4375 25.9375 33.4765C25.711 33.5195 25.3242 33.5898 25.0781 33.6367C24.832 33.6797 24.5391 33.7344 24.4336 33.7539C24.3242 33.7773 24.1055 33.8086 23.9453 33.832C23.7852 33.8515 23.5313 33.8828 23.3789 33.9062C23.2266 33.9258 22.7109 33.9726 22.2266 34.0039C21.7422 34.039 21.0586 34.0625 20.7031 34.0586C20.3477 34.0586 19.7852 34.039 19.4531 34.0234C19.1211 34.0039 18.6641 33.9687 18.4375 33.9453C18.2109 33.9219 17.8594 33.8867 17.6563 33.8633C17.4531 33.8437 17.1094 33.7969 16.8945 33.7656C16.6797 33.7344 16.3125 33.6719 16.0742 33.6289C15.8359 33.5859 15.3906 33.4961 15.0781 33.4375C14.7656 33.375 14.1524 33.2226 13.7109 33.1054C13.2695 32.9844 12.5938 32.7812 12.207 32.6484C11.8203 32.5156 11.3203 32.332 11.0938 32.2344C10.8672 32.1406 10.4102 31.9258 10.0781 31.7617C9.7461 31.5976 9.11329 31.2344 8.67579 30.957C8.24219 30.6758 7.65235 30.2656 7.3711 30.039C7.08594 29.8125 6.64454 29.4336 6.38672 29.1953C6.12891 28.957 5.77735 28.6133 5.60547 28.4336C5.4336 28.2539 5.16797 27.957 5.01563 27.7734C4.86328 27.5898 4.625 27.2851 4.48438 27.0898C4.33985 26.8945 4.09375 26.5195 3.9336 26.25C3.77344 25.9804 3.58203 25.6406 3.50781 25.4883C3.42969 25.3359 3.29688 24.9961 3.20313 24.7265C3.10156 24.418 3.02344 24.1015 2.99609 23.8672C2.97266 23.664 2.95313 23.2578 2.95313 22.9687C2.95313 22.6797 2.97266 22.3008 2.99609 22.1289C3.01953 21.957 3.07422 21.5976 3.125 21.3281C3.17188 21.0586 3.28906 20.5312 3.38281 20.1562C3.48047 19.7812 3.60938 19.2187 3.67188 18.9062C3.73438 18.5937 3.79688 18.25 3.8125 18.1445C3.82422 18.039 3.87891 17.7578 3.92969 17.5195C3.98047 17.2812 4.0625 16.8867 4.11719 16.6406C4.16797 16.3945 4.23828 16.0156 4.27735 15.8008C4.3125 15.5859 4.35938 15.3359 4.37891 15.2422C4.39844 15.1523 4.41406 14.9961 4.41406 14.8945C4.41406 14.789 4.4336 14.6289 4.45703 14.5312C4.48828 14.3906 4.48438 14.3437 4.4375 14.2969C4.38672 14.2461 4.36719 14.2539 4.26953 14.3594C4.21094 14.4258 4.08594 14.6211 3.9961 14.789C3.90625 14.957 3.80078 15.1172 3.76172 15.1406C3.69922 15.1758 3.69531 15.168 3.70703 15.082C3.71485 15.0273 3.84375 14.6719 3.98828 14.2969C4.13281 13.9219 4.40625 13.3047 4.59766 12.9297C4.78906 12.5547 5.0586 12.0547 5.20313 11.8164C5.34375 11.5781 5.56641 11.2031 5.69531 10.9766C5.82813 10.75 6.04297 10.414 6.17969 10.2266C6.31641 10.0391 6.53907 9.72264 6.67969 9.52733C6.82032 9.33202 7.03907 9.04686 7.16797 8.89452C7.29688 8.74218 7.60547 8.40233 7.85157 8.1328C8.09766 7.86718 8.46875 7.5039 8.67188 7.32421C8.875 7.14843 9.21875 6.86327 9.4336 6.6914C9.64844 6.51952 10.0859 6.20312 10.4102 5.98827C10.7305 5.77343 11.1992 5.48437 11.4453 5.34374C11.6914 5.20312 12.1836 4.93749 12.5391 4.7578C12.8945 4.57812 13.4219 4.33593 13.7109 4.22265C14 4.10937 14.4414 3.94921 14.6875 3.86327C14.9336 3.78124 15.4805 3.62499 15.8984 3.51952C16.3164 3.41405 16.8711 3.29296 17.1289 3.24609C17.3867 3.20312 17.8281 3.14062 18.1055 3.10155C18.4766 3.05468 18.9102 3.03515 19.707 3.03124C20.5195 3.03124 20.9531 3.04687 21.3867 3.09765C21.707 3.13671 22.1406 3.1953 22.3438 3.22655C22.5469 3.2578 22.9336 3.32812 23.2031 3.3828C23.4727 3.43358 23.9219 3.54296 24.1992 3.61718C24.4766 3.6953 24.8828 3.8203 25.0977 3.89452C25.3125 3.96874 25.7695 4.14062 26.1133 4.27733C26.457 4.41405 26.9688 4.6328 27.2461 4.76562C27.5235 4.89843 27.9649 5.12108 28.2227 5.26171C28.4805 5.40624 28.8945 5.64452 29.1406 5.79686C29.3867 5.94921 29.8789 6.28905 30.2344 6.55858C30.5899 6.82421 30.9844 7.1328 31.1133 7.24218C31.2422 7.35155 31.5586 7.64061 31.8164 7.8828C32.0742 8.1289 32.4492 8.5078 32.6485 8.72655C32.8516 8.9414 33.168 9.31249 33.3516 9.55077C33.5391 9.78905 33.9024 10.2969 34.1602 10.6836C34.4219 11.0703 34.6992 11.5078 34.7813 11.6601C34.8633 11.8125 35.0313 12.1172 35.1563 12.3437C35.2813 12.5703 35.4805 12.9922 35.5977 13.2812C35.7149 13.5703 35.8906 14.0273 35.9922 14.2969C36.0899 14.5664 36.2071 14.9062 36.25 15.0586C36.293 15.2109 36.4024 15.6133 36.4883 15.957C36.5742 16.3008 36.668 16.7305 36.7031 16.914C36.7344 17.0976 36.8047 17.5703 36.8555 17.9687C36.9063 18.3672 36.9688 18.9726 36.9922 19.3164C37.0117 19.6601 37.0313 20.2656 37.0313 20.664C37.0313 21.1289 37.0039 21.625 36.9531 22.0508C36.9102 22.418 36.8438 22.9101 36.8008 23.1445C36.7578 23.3789 36.6953 23.6875 36.6641 23.8281C36.6328 23.9687 36.5547 24.3203 36.4844 24.6094C36.418 24.8984 36.375 25.1601 36.3867 25.1875C36.4024 25.2226 36.6328 25.2344 37.3516 25.2344C37.875 25.2344 38.3242 25.2187 38.3516 25.2031C38.3789 25.1875 38.4336 25.043 38.4766 24.8828C38.5196 24.7226 38.6172 24.2929 38.6914 23.9258C38.7656 23.5586 38.8438 23.1406 38.8672 22.9883C38.8906 22.8359 38.9375 22.4687 38.9649 22.168C38.9961 21.8672 39.0313 21.2773 39.0469 20.8594C39.0625 20.3359 39.0508 19.7344 39.0078 18.9453C38.9688 18.3125 38.9141 17.6328 38.8828 17.4414C38.8477 17.25 38.7696 16.8711 38.711 16.6015C38.6485 16.332 38.5 15.7539 38.3828 15.3125C38.2656 14.8711 38.043 14.1758 37.8906 13.7695C37.7383 13.3633 37.4727 12.7305 37.2969 12.3633C37.1211 11.9961 36.8399 11.4531 36.668 11.1523C36.4961 10.8516 36.2305 10.4219 36.0821 10.1953C35.9297 9.96874 35.6641 9.59374 35.4883 9.35546C35.3125 9.11718 34.9883 8.70702 34.7617 8.43749C34.5391 8.16796 34.1367 7.72265 33.8672 7.4453C33.5977 7.16796 33.125 6.71483 32.8125 6.43358C32.5 6.15624 32.0899 5.80077 31.8945 5.64843C31.6992 5.49218 31.3477 5.22655 31.1133 5.05468C30.8789 4.8789 30.4531 4.58983 30.1758 4.40624C29.8985 4.22265 29.3945 3.92187 29.0625 3.74218C28.7305 3.55859 28.1914 3.28515 27.8711 3.1328C27.5469 2.98046 26.9961 2.74218 26.6406 2.60546C26.2852 2.46484 25.7852 2.28905 25.5274 2.21484C25.2695 2.13671 24.8477 2.01562 24.5899 1.9414C24.332 1.86718 23.9883 1.77734 23.8281 1.74609C23.668 1.71093 23.3789 1.65624 23.1836 1.62109C22.9883 1.58593 22.7266 1.54296 22.5977 1.52343C22.4688 1.5039 22.207 1.46874 22.0117 1.4453C21.8164 1.42187 21.3711 1.38671 21.0156 1.36718C20.6602 1.34765 20.1055 1.33202 19.7852 1.33593C19.4609 1.33593 18.9531 1.35155 18.6524 1.36718Z" />
</svg>