<svg width="41" height="42" viewBox="0 0 41 42" fill="none" xmlns="http://www.w3.org/2000/svg">
<path d="M31.5917 17.1843C31.5517 17.1963 31.5397 17.2603 31.5437 17.3885C31.5477 17.4926 31.5717 17.6047 31.5998 17.6407C31.6278 17.6768 31.804 17.8169 31.9921 17.949C32.1803 18.0771 32.3605 18.2173 32.3925 18.2573C32.4246 18.2974 32.5767 18.4295 32.7329 18.5536C32.889 18.6817 33.1933 18.914 33.4135 19.0701C33.6337 19.2303 33.8419 19.3624 33.874 19.3584C33.906 19.3584 33.9741 19.3304 34.0221 19.2983C34.0742 19.2663 34.1342 19.2022 34.1542 19.1582C34.1823 19.1021 34.1783 19.0421 34.1382 18.95C34.1102 18.8779 34.0061 18.7418 33.91 18.6537C33.8139 18.5616 33.6337 18.4175 33.5096 18.3334C33.3895 18.2453 33.1172 18.0491 32.909 17.893C32.7008 17.7328 32.3965 17.5326 32.2324 17.4445C32.0682 17.3524 31.868 17.2563 31.7919 17.2243C31.7119 17.1923 31.6238 17.1763 31.5917 17.1843Z" fill="#1F1F1F"/>
<path d="M32.0875 16.6758C32.0435 16.6958 31.9914 16.7639 31.9754 16.8239C31.9554 16.892 31.9594 16.9721 31.9874 17.0241C32.0154 17.0802 32.1596 17.1763 32.3638 17.2724C32.544 17.3564 32.8443 17.4726 33.0324 17.5286C33.2206 17.5847 33.6691 17.7328 34.0334 17.8529C34.3978 17.973 34.8702 18.1172 35.0864 18.1732C35.2986 18.2293 35.5389 18.2773 35.615 18.2773C35.7151 18.2773 35.7871 18.2453 35.8552 18.1772C35.9112 18.1212 35.9553 18.0291 35.9553 17.965C35.9553 17.901 35.9193 17.8209 35.8672 17.7729C35.8151 17.7248 35.7551 17.6768 35.7351 17.6647C35.7151 17.6527 35.3987 17.5526 35.0344 17.4445C34.67 17.3324 34.0775 17.1603 33.7131 17.0562C33.3487 16.9561 32.9163 16.8319 32.7522 16.7759C32.588 16.7238 32.3878 16.6718 32.3117 16.6598C32.2357 16.6518 32.1356 16.6558 32.0875 16.6758Z" fill="#1F1F1F"/>
<path d="M22.6614 16.6558C22.3651 16.7559 21.8406 16.9 21.5002 16.9801C21.1599 17.0602 20.6434 17.1883 20.3591 17.2644C20.0748 17.3444 19.6584 17.4645 19.4382 17.5366C19.218 17.6087 18.8857 17.6928 18.6975 17.7288C18.5093 17.7648 18.2571 17.8009 18.137 17.8169C18.0168 17.8289 17.8367 17.8769 17.7366 17.929C17.6204 17.9851 17.5284 18.0691 17.4763 18.1652C17.4122 18.2813 17.4042 18.3334 17.4363 18.4255C17.4643 18.4976 17.5324 18.5656 17.6365 18.6137C17.7926 18.6857 17.8006 18.6857 18.0168 18.6057C18.137 18.5576 18.5814 18.4375 18.9978 18.3414C19.4142 18.2413 20.1349 18.0611 20.5994 17.941C21.0598 17.8209 21.7124 17.6287 22.0408 17.5166C22.3731 17.4085 22.8015 17.2523 23.0017 17.1763C23.2019 17.1002 23.4101 16.9881 23.4742 16.928C23.5422 16.86 23.5863 16.7759 23.5823 16.7078C23.5823 16.6437 23.5542 16.5677 23.5222 16.5356C23.4902 16.5036 23.4021 16.4756 23.33 16.4796C23.262 16.4796 22.9577 16.5597 22.6614 16.6558Z" fill="#1F1F1F"/>
<path d="M18.758 15.9431C18.2976 15.9551 18.1855 15.9711 18.1254 16.0271C18.0894 16.0632 18.0453 16.1393 18.0333 16.1953C18.0213 16.2514 18.0373 16.3475 18.0654 16.4075C18.0934 16.4676 18.1454 16.5276 18.1775 16.5396C18.2095 16.5557 18.7861 16.5717 19.4587 16.5757C20.1314 16.5837 21.0483 16.5757 21.5007 16.5557C21.9532 16.5356 22.4576 16.4916 22.6218 16.4556C22.858 16.4075 22.9461 16.3715 23.0342 16.2754C23.1023 16.1993 23.1383 16.1192 23.1343 16.0552L23.1223 15.9591C20.1754 15.9351 19.0663 15.9351 18.758 15.9431Z" fill="#1F1F1F"/>
<path d="M32.776 15.7669C32.7199 15.827 32.6759 15.911 32.6719 15.9631C32.6719 16.0151 32.6999 16.0872 32.7399 16.1232C32.78 16.1593 32.8561 16.2073 32.9121 16.2273C32.9682 16.2474 33.5047 16.2714 34.1053 16.2794L35.2023 16.2954C35.3505 16.1232 35.3945 16.0432 35.3945 16.0031C35.3985 15.9671 35.3665 15.891 35.3265 15.839L35.2544 15.7429C33.7329 15.7309 33.2004 15.7149 33.0883 15.6988C32.8961 15.6668 32.8721 15.6748 32.776 15.7669Z" fill="#1F1F1F"/>
<path d="M20.2122 12.0353C20.048 12.0513 19.8839 12.0993 19.7438 12.1754C19.6156 12.2435 19.4755 12.3596 19.4114 12.4517C19.3474 12.5397 19.2753 12.6759 19.2513 12.752C19.2232 12.828 19.2032 13.0402 19.1992 13.2204C19.1992 13.4847 19.2152 13.5647 19.2713 13.6208C19.3354 13.6849 19.4595 13.6929 20.7127 13.7049C21.4654 13.7129 22.1221 13.7089 22.1701 13.6969C22.2222 13.6849 22.2622 13.6448 22.2622 13.6128C22.2622 13.5808 22.1501 13.3445 22.01 13.0843C21.8738 12.828 21.6896 12.5397 21.6016 12.4436C21.5135 12.3436 21.3493 12.2194 21.2412 12.1674C21.1291 12.1153 20.9129 12.0593 20.7527 12.0433C20.5926 12.0232 20.3483 12.0232 20.2122 12.0353Z" fill="#1F1F1F"/>
<path d="M18.198 6.18555C17.8657 6.20157 17.3251 6.24561 16.9968 6.28164C16.6645 6.31768 16.144 6.39375 15.8357 6.44981C15.5274 6.50586 15.0309 6.60996 14.7346 6.68604C14.4383 6.75811 13.9859 6.89024 13.7336 6.97832C13.4814 7.06641 13.0369 7.23057 12.7527 7.34268C12.4684 7.45879 11.9959 7.67901 11.7117 7.83116C11.4274 7.98731 11.019 8.23155 10.8108 8.36768C10.6026 8.50782 10.2502 8.77207 10.03 8.96026C9.8098 9.14444 9.43744 9.49278 9.20521 9.73301C8.97298 9.97325 8.63265 10.3616 8.44447 10.5939C8.26029 10.8301 8.02806 11.1624 7.93197 11.3346C7.83587 11.5107 7.6597 11.803 7.54359 11.9912C7.42748 12.1794 7.17123 12.6559 6.97503 13.0522C6.77884 13.4486 6.48656 14.1173 6.3264 14.5337C6.16625 14.9501 5.96605 15.5307 5.88197 15.8149C5.80189 16.0992 5.67777 16.5437 5.6097 16.7959C5.54164 17.0481 5.41751 17.6167 5.32943 18.0571C5.24134 18.4976 5.08519 19.2583 4.98509 19.7508C4.885 20.2393 4.74085 21.024 4.66478 21.4925C4.58871 21.9569 4.50462 22.5655 4.4806 22.8418C4.45257 23.1381 4.44457 23.6626 4.45658 24.1231C4.46859 24.6155 4.50062 25.0159 4.54066 25.2041C4.57669 25.3683 4.64476 25.6285 4.6888 25.7847C4.73685 25.9408 4.85296 26.2371 4.95306 26.4453C5.04916 26.6535 5.22132 26.9778 5.33343 27.166C5.44554 27.3542 5.66175 27.6665 5.81791 27.8667C5.97406 28.0669 6.31839 28.4673 6.58265 28.7596C6.85091 29.0559 7.21927 29.4282 7.40746 29.5844C7.59564 29.7445 7.93597 30.0288 8.1682 30.213C8.40042 30.3932 8.80482 30.6935 9.06908 30.8736C9.33333 31.0498 9.75374 31.3181 9.99798 31.4662C10.2462 31.6104 10.7507 31.8826 11.1191 32.0668C11.4914 32.251 11.9639 32.4752 12.1721 32.5633C12.3803 32.6514 12.6326 32.7475 12.7327 32.7835C12.8327 32.8195 13.109 32.9116 13.3533 32.9877C13.5975 33.0638 14.126 33.2239 14.5344 33.344C14.9428 33.4682 15.4193 33.5963 15.5954 33.6323C15.7716 33.6684 16.0519 33.7284 16.216 33.7725C16.3802 33.8125 16.8046 33.8886 17.157 33.9446C17.5093 34.0007 17.9417 34.0648 18.1179 34.0888C18.2941 34.1128 18.5904 34.1488 18.7785 34.1689C18.9667 34.1929 19.4072 34.2289 19.7595 34.2529C20.1118 34.277 20.6203 34.313 20.8886 34.337C21.1609 34.357 21.7775 34.3731 22.2619 34.3731C22.7464 34.3731 23.1708 34.365 23.2029 34.353C23.2349 34.341 23.2629 34.301 23.2629 34.2609C23.2629 34.2249 23.1628 34.0487 23.0427 33.8726C22.9266 33.6964 22.5903 33.292 22.302 32.9717C22.0097 32.6514 21.5733 32.1869 21.329 31.9387C21.0808 31.6864 20.4562 31.0738 19.9397 30.5773C19.4232 30.0769 18.7705 29.4683 18.4943 29.228C18.218 28.9878 17.7495 28.5754 17.4533 28.3191C17.157 28.0589 16.7646 27.7306 16.5764 27.5864C16.3882 27.4383 15.9318 27.0899 15.5554 26.8097C15.179 26.5294 14.5704 26.077 14.1941 25.8047C13.8177 25.5324 13.2331 25.112 12.8928 24.8718C12.5525 24.6315 12.1561 24.3433 12.0119 24.2272C11.8678 24.111 11.6556 23.8908 11.5435 23.7387C11.4274 23.5865 11.2432 23.2822 11.1351 23.062C11.023 22.8418 10.8828 22.5015 10.8148 22.3013C10.7507 22.1011 10.6546 21.7407 10.6066 21.5005C10.5345 21.1401 10.5145 20.9199 10.5145 20.2993C10.5145 19.8429 10.5345 19.4024 10.5665 19.1982C10.5946 19.0101 10.6706 18.6417 10.7347 18.3774C10.8028 18.0932 10.9549 17.6407 11.1031 17.2764C11.2472 16.936 11.3833 16.5837 11.4114 16.4956C11.4394 16.4075 11.4874 16.2994 11.5195 16.2554C11.5475 16.2113 11.5715 16.1633 11.5715 16.1473C11.5715 16.1272 11.3153 15.9911 11.003 15.839C10.6867 15.6868 10.2863 15.4666 10.1101 15.3505C9.93392 15.2344 9.63763 14.9861 9.44945 14.798C9.24925 14.5938 9.05707 14.3535 8.98099 14.2134C8.91292 14.0813 8.81683 13.837 8.76478 13.6729C8.69271 13.4406 8.67269 13.2765 8.67269 12.9321C8.67269 12.5237 8.6847 12.4557 8.83285 12.0313C8.93695 11.7189 9.05306 11.4747 9.18919 11.2705C9.2973 11.1064 9.51351 10.8421 9.66966 10.6899C9.82181 10.5338 10.0781 10.3336 10.2302 10.2415C10.3864 10.1494 10.6546 10.0293 10.8308 9.96924C11.007 9.91319 11.3393 9.84912 11.5715 9.8251C11.8037 9.80108 12.092 9.79707 12.2121 9.80909C12.3323 9.8251 12.5405 9.87315 12.6726 9.91719C12.8047 9.96524 12.9929 10.0413 13.093 10.0894C13.1931 10.1414 13.3533 10.2495 13.4494 10.3376C13.5454 10.4217 13.6776 10.5778 13.7376 10.6899C13.8017 10.7981 13.8537 10.9222 13.8537 10.9582C13.8537 11.0223 13.8297 11.0263 13.6656 10.9982C13.5575 10.9822 13.1851 10.9702 12.8327 10.9702C12.2522 10.9702 12.1601 10.9822 11.8518 11.0783C11.6396 11.1464 11.3994 11.2585 11.2112 11.3826C11.047 11.4907 10.8428 11.6549 10.7627 11.747C10.6786 11.8351 10.5625 12.0072 10.5065 12.1193C10.4464 12.2355 10.3743 12.4757 10.3423 12.6519C10.3063 12.828 10.2903 13.0603 10.3023 13.1724C10.3143 13.2805 10.3503 13.4727 10.3864 13.5928C10.4184 13.7129 10.5225 13.9251 10.6106 14.0612C10.7174 14.2294 10.8962 14.4162 11.1471 14.6218C11.3513 14.7939 11.6716 15.0182 11.8558 15.1223C12.04 15.2224 12.2161 15.2944 12.2442 15.2824C12.2722 15.2664 12.3122 15.1983 12.3323 15.1343C12.3523 15.0702 12.4524 14.8981 12.5565 14.7539C12.6606 14.6098 12.8928 14.3335 13.069 14.1373C13.2492 13.9411 13.5174 13.6608 13.6736 13.5127C13.8297 13.3646 14.078 13.1363 14.2341 13.0002C14.3903 12.8681 14.6946 12.6398 14.9148 12.4957C15.135 12.3476 15.5034 12.1314 15.7356 12.0112C15.9678 11.8951 16.4002 11.7029 16.6965 11.5908C16.9928 11.4787 17.3371 11.3306 17.4573 11.2665C17.5774 11.2024 17.8416 11.0183 18.0418 10.8581C18.242 10.702 18.5864 10.4177 18.8026 10.2375C19.0188 10.0533 19.3351 9.80508 19.4993 9.68897C19.6634 9.57286 19.9357 9.40469 20.0998 9.3126C20.264 9.22452 20.5363 9.1044 20.7004 9.04834C20.8646 8.99229 21.245 8.9002 21.5412 8.84414C21.9536 8.76807 22.274 8.73604 22.8826 8.72002C23.359 8.70801 23.8675 8.71602 24.1438 8.74004C24.404 8.76807 24.8885 8.85616 25.2649 8.95225C25.6292 9.04034 26.1257 9.18848 26.366 9.27657C26.6062 9.36465 27.0867 9.58086 27.427 9.75303C27.7673 9.9252 28.2198 10.1855 28.436 10.3376C28.6482 10.4857 29.1527 10.8621 29.5571 11.1664C29.9935 11.4987 30.4019 11.775 30.5701 11.8511C30.7262 11.9231 30.9224 12.0032 31.0105 12.0313C31.0986 12.0593 31.2948 12.1474 31.4509 12.2234C31.6071 12.2995 31.8313 12.4276 31.9514 12.5117C32.0715 12.5918 32.2357 12.7319 32.3118 12.816C32.3918 12.9041 32.532 13.0963 32.6241 13.2524C32.7161 13.4086 32.8283 13.6408 32.8763 13.773C32.9203 13.9051 32.9764 14.1373 32.9964 14.2935C33.0164 14.4496 33.0565 14.5978 33.0805 14.6258C33.1085 14.6538 33.1646 14.6778 33.2046 14.6738C33.2407 14.6738 33.3087 14.6258 33.3528 14.5617C33.3968 14.5017 33.4529 14.3695 33.4729 14.2614C33.4969 14.1573 33.5129 13.9972 33.5129 13.9011C33.5129 13.809 33.4769 13.5688 33.4288 13.3726C33.3848 13.1764 33.3047 12.9321 33.2447 12.832C33.1886 12.7319 32.9964 12.5077 32.8162 12.3275C32.56 12.0753 32.4199 11.9712 32.1516 11.8391C31.9634 11.747 31.7032 11.6469 31.571 11.6148C31.4389 11.5828 31.2267 11.5388 31.1026 11.5147C30.8824 11.4747 30.8583 11.4547 30.6421 11.1984C30.518 11.0503 30.1617 10.6739 29.8534 10.3576C29.541 10.0413 29.1567 9.67696 29.0005 9.54483C28.8404 9.4167 28.6962 9.26856 28.6842 9.21651C28.6709 9.15778 28.7016 9.0697 28.7763 8.95225C28.8644 8.80811 28.9525 8.74004 29.2087 8.61192C29.517 8.45176 29.529 8.44375 29.541 8.29561C29.5491 8.17549 29.525 8.12344 29.4209 8.01934C29.3008 7.90323 29.2728 7.89522 29.0846 7.91123C28.9445 7.92325 28.8364 7.96328 28.7363 8.03535C28.6562 8.09942 28.5 8.27159 28.3879 8.42774C28.2545 8.61459 28.161 8.70801 28.1077 8.70801C28.0636 8.70801 27.9155 8.63994 27.7793 8.55586C27.6392 8.46778 27.3669 8.29561 27.1667 8.17149C26.9665 8.04336 26.5822 7.82715 26.3059 7.68702C26.0296 7.55088 25.5532 7.33467 25.2449 7.20655C24.9366 7.07842 24.5762 6.94229 24.4441 6.89825C24.3119 6.85821 23.9596 6.76211 23.6633 6.69004C23.367 6.61397 22.9146 6.51387 22.6623 6.46983C22.4101 6.42578 22.0658 6.37373 21.9016 6.34971C21.7374 6.32569 21.305 6.28164 20.9407 6.24961C20.5763 6.21758 19.9477 6.18155 19.5393 6.17354C19.1309 6.16153 18.5263 6.16953 18.198 6.18555Z" fill="#1F1F1F"/>
<path d="M19.118 1.90136C18.8097 1.91738 18.3933 1.95341 18.1971 1.98144C18.0009 2.00546 17.6646 2.05351 17.4563 2.08955C17.2481 2.12158 16.9519 2.17363 16.7957 2.20566C16.6396 2.23769 16.2992 2.31777 16.035 2.38583C15.7707 2.4499 15.3463 2.57001 15.094 2.65009C14.8418 2.72617 14.2572 2.93437 13.7928 3.10654C13.3283 3.28271 12.7157 3.53896 12.4314 3.6791C12.1472 3.81523 11.6106 4.0955 11.2383 4.2957C10.8699 4.4999 10.4215 4.75615 10.2413 4.87226C10.0571 4.98437 9.60068 5.30468 9.22832 5.58496C8.84795 5.86923 8.20332 6.40976 7.7709 6.81015C7.34248 7.20253 6.70186 7.84316 6.34951 8.23154C5.99316 8.61591 5.52471 9.17646 5.30049 9.47275C5.07627 9.76904 4.75195 10.2255 4.57578 10.4897C4.39561 10.754 4.09131 11.2585 3.89912 11.6108C3.70293 11.9632 3.39463 12.5678 3.21846 12.9521C3.03828 13.3365 2.81006 13.861 2.70996 14.1133C2.60586 14.3655 2.41367 14.878 2.28154 15.2544C2.14541 15.6308 1.9292 16.3515 1.80107 16.856C1.67295 17.3604 1.53281 17.9851 1.48477 18.2373C1.44072 18.4895 1.36465 18.986 1.3166 19.3384C1.24053 19.8709 1.22852 20.1592 1.22852 21.0601C1.22852 21.6566 1.25254 22.3213 1.27656 22.5415C1.30059 22.7617 1.34463 23.086 1.36465 23.2622C1.38867 23.4384 1.46074 23.8988 1.5248 24.2832C1.58887 24.6676 1.69697 25.2081 1.76104 25.4844C1.8291 25.7606 1.99326 26.3172 2.12939 26.7256C2.26553 27.134 2.45371 27.6665 2.5498 27.9067C2.6499 28.147 2.87412 28.6515 3.0543 29.0278C3.23047 29.4042 3.55879 30.0048 3.775 30.3691C3.99521 30.7335 4.24746 31.1379 4.33555 31.27C4.42363 31.4021 4.61582 31.6624 4.75996 31.8506C4.9041 32.0388 5.19639 32.4071 5.40459 32.6714C5.61279 32.9356 6.02119 33.4041 6.30947 33.7124C6.59775 34.0207 7.0582 34.4892 7.33047 34.7534C7.60274 35.0217 7.94307 35.334 8.08721 35.4541C8.23135 35.5702 8.43555 35.7344 8.54766 35.8144C8.65576 35.8945 8.98008 36.1227 9.26836 36.3229C9.55664 36.5191 10.0852 36.8635 10.4495 37.0837C10.8139 37.3039 11.4145 37.6362 11.7908 37.8284C12.1672 38.0166 12.6517 38.2528 12.8719 38.3489C13.0921 38.449 13.4805 38.6012 13.7327 38.6893C13.985 38.7813 14.4734 38.9335 14.8138 39.0336C15.1541 39.1337 15.7507 39.2858 16.1351 39.3739C16.5194 39.458 16.9519 39.5501 17.096 39.5701C17.2401 39.5941 17.6005 39.6422 17.8968 39.6742C18.1931 39.7102 18.7536 39.7543 19.138 39.7783C19.5224 39.8023 20.2431 39.8224 20.7395 39.8224C21.236 39.8264 21.8847 39.8063 22.181 39.7823C22.4772 39.7583 22.8656 39.7183 23.0418 39.6982C23.218 39.6742 23.5343 39.6262 23.7425 39.5941C23.9507 39.5581 24.3831 39.482 24.7034 39.418C25.0237 39.3539 25.5522 39.2258 25.8846 39.1337C26.2129 39.0456 26.6573 38.9175 26.8655 38.8494C27.0737 38.7853 27.5862 38.5892 28.0066 38.417C28.427 38.2448 28.8835 38.0486 29.0276 37.9846C29.1718 37.9205 29.5401 37.7323 29.8484 37.5682C30.1567 37.404 30.6772 37.0997 31.0096 36.8955C31.3379 36.6953 31.7183 36.4551 31.8504 36.363C31.9825 36.2749 32.1987 36.1187 32.3309 36.0186C32.463 35.9185 32.7953 35.6463 33.0716 35.4141C33.3438 35.1818 33.9524 34.6053 34.4249 34.1328L35.2777 33.272C38.5489 33.296 39.5379 33.292 39.5899 33.276C39.638 33.264 39.674 33.2279 39.666 33.1959C39.662 33.1639 39.2776 32.7835 38.8172 32.3511C38.3567 31.9186 37.8402 31.4542 37.6761 31.3221C37.5119 31.1899 37.2036 30.9937 36.9954 30.8896C36.7872 30.7855 36.3268 30.5934 35.9744 30.4692C35.6221 30.3411 35.0095 30.1329 34.6131 30.0048C34.2167 29.8727 33.6842 29.7125 33.4319 29.6444C33.1797 29.5764 32.9274 29.4963 32.8714 29.4683L32.7713 29.4162C32.9555 29.3802 33.1637 29.3882 33.3519 29.4082C33.54 29.4322 34.3208 29.4643 35.0936 29.4843C35.8623 29.5043 37.3558 29.5363 38.4048 29.5563C40.2906 29.5884 40.3146 29.5884 40.3427 29.5083C40.3667 29.4402 40.2786 29.3361 39.8142 28.8917C39.5099 28.5994 39.2016 28.3231 39.1375 28.2831C39.0214 28.215 38.8652 28.211 35.8943 28.2351C33.7282 28.2511 32.5311 28.2431 31.9905 28.211C31.5621 28.187 31.0576 28.131 30.8694 28.0909C30.6812 28.0509 30.3409 27.9548 30.1087 27.8747C29.8765 27.7986 29.5281 27.6545 29.3279 27.5544C29.1277 27.4583 28.7514 27.2341 28.4871 27.0579C28.1428 26.8297 27.8625 26.5935 27.5062 26.2411C27.2259 25.9688 26.9296 25.6445 26.8375 25.5244C26.7494 25.4043 26.6053 25.1601 26.5172 24.9839C26.4251 24.8077 26.313 24.5274 26.2609 24.3633C26.1889 24.123 26.1688 23.9749 26.1729 23.6025C26.1729 23.3503 26.1969 23.062 26.2209 22.9619C26.2449 22.8618 26.317 22.6656 26.373 22.5215C26.4291 22.3773 26.5012 22.2332 26.5292 22.2012C26.5692 22.1531 26.7334 22.1331 27.2739 22.1131C27.7144 22.0931 28.0907 22.057 28.3069 22.005C28.4951 21.9649 28.7634 21.8889 28.9075 21.8408C29.0517 21.7928 29.3119 21.6887 29.4881 21.6046C29.6643 21.5245 29.9445 21.3643 30.1087 21.2522C30.2729 21.1441 30.5892 20.8919 30.8054 20.6957C31.0256 20.4995 31.3019 20.2152 31.418 20.0591C31.5381 19.9029 31.7263 19.5986 31.8344 19.3784C31.9465 19.1582 32.0466 18.9019 32.0626 18.8059C32.0826 18.6817 32.0786 18.6377 32.0386 18.6377C32.0146 18.6377 31.9505 18.6937 31.8984 18.7578C31.8504 18.8259 31.7383 18.914 31.6502 18.958C31.5621 18.998 31.3819 19.0421 31.2498 19.0581C31.1017 19.0741 30.9175 19.0661 30.7693 19.0341C30.5731 18.994 30.5011 18.954 30.3569 18.8099C30.2608 18.7138 30.1207 18.4935 30.0326 18.3094C29.9445 18.1252 29.8564 17.881 29.8324 17.7688C29.8084 17.6527 29.7884 17.4846 29.7884 17.3965C29.7884 17.3084 29.8164 17.1803 29.8484 17.1162C29.8885 17.0361 30.0646 16.896 30.3569 16.7038C30.6052 16.5396 30.9295 16.2994 31.0776 16.1633C31.2738 15.9871 31.402 15.899 31.5341 15.867C31.6582 15.831 31.7423 15.7789 31.7823 15.7148C31.8344 15.6268 31.8384 15.5747 31.7943 15.3144C31.7583 15.0902 31.7583 15.0021 31.7903 14.9741C31.8144 14.9501 31.9104 14.898 31.9985 14.854C32.1066 14.8019 32.1907 14.7179 32.2468 14.6138C32.3148 14.4856 32.3309 14.3815 32.3309 14.1133C32.3309 13.869 32.3068 13.6929 32.2388 13.4927C32.1827 13.3165 32.0946 13.1443 31.9985 13.0362C31.9185 12.9401 31.7783 12.824 31.6902 12.78C31.6021 12.7359 31.43 12.6679 31.3099 12.6238C31.1897 12.5838 30.9735 12.5317 30.8294 12.5077C30.6853 12.4837 30.425 12.4517 30.2488 12.4316C30.0727 12.4156 29.6242 12.4156 29.2479 12.4316C28.8715 12.4477 28.423 12.4917 28.2469 12.5317C28.0707 12.5678 27.7384 12.6799 27.5062 12.776C27.2739 12.8761 26.9656 13.0442 26.8175 13.1443C26.6733 13.2484 26.4211 13.4486 26.2569 13.5968C26.0888 13.7449 25.9246 13.9331 25.8766 14.0372C25.8245 14.1333 25.7845 14.2734 25.7845 14.3455C25.7845 14.4336 25.8245 14.5177 25.9126 14.6178C26.0167 14.7299 26.0848 14.7659 26.2249 14.7819C26.3891 14.8019 26.4211 14.7899 26.5853 14.6538C26.6854 14.5737 26.8015 14.5017 26.8455 14.4936C26.8895 14.4856 27.0617 14.4496 27.2259 14.4136C27.39 14.3775 27.5702 14.3455 27.6263 14.3415C27.7184 14.3335 27.7264 14.3495 27.7384 14.5337C27.7504 14.7179 27.7344 14.7539 27.5662 14.9741C27.4661 15.1062 27.374 15.2624 27.366 15.3265C27.354 15.3905 27.374 15.4826 27.4141 15.5507C27.4541 15.6107 27.6103 15.7749 27.7664 15.911C27.9226 16.0512 28.2909 16.3114 28.5872 16.4876C29.0236 16.7559 29.1317 16.8359 29.1397 16.916C29.1478 16.9721 29.0837 17.1562 28.9916 17.3364C28.8955 17.5326 28.7353 17.7648 28.5792 17.933C28.4391 18.0851 28.2269 18.2773 28.1067 18.3574C27.9866 18.4415 27.7704 18.5656 27.6263 18.6377C27.4821 18.7098 27.2579 18.8099 27.1258 18.8619C26.9937 18.91 26.7254 18.982 26.5252 19.0181C26.325 19.0541 26.0407 19.0981 25.8846 19.1222C25.7284 19.1422 25.5723 19.1662 25.5322 19.1782C25.4962 19.1902 25.4642 19.2263 25.4642 19.2583C25.4642 19.3023 25.5282 19.3264 25.7124 19.3424C25.8525 19.3544 26.353 19.3584 26.8255 19.3464C27.2979 19.3384 27.9105 19.2983 28.1868 19.2623C28.4631 19.2263 28.8595 19.1582 29.0677 19.1101L29.448 19.0221C30.1407 19.3744 30.3049 19.4785 30.3009 19.5105C30.2929 19.5426 30.1087 19.6227 29.8685 19.6947C29.6362 19.7668 29.2238 19.9069 28.9476 20.007C28.6713 20.1071 28.1948 20.2553 27.8865 20.3313C27.5782 20.4114 27.0457 20.5315 26.7054 20.5956C26.365 20.6597 25.9326 20.7277 25.7444 20.7437C25.5442 20.7598 25.2319 20.7518 24.9837 20.7237C24.7515 20.6957 24.3831 20.6356 24.1629 20.5916C23.9427 20.5476 23.5463 20.4314 23.282 20.3353C23.0178 20.2393 22.6534 20.0711 22.4692 19.967C22.2891 19.8629 21.9607 19.6267 21.7405 19.4385C21.5123 19.2463 21.3401 19.0661 21.3401 19.0301C21.3401 18.978 21.5604 18.8499 22.1489 18.5616C22.5974 18.3454 23.1059 18.1012 23.282 18.0171C23.4582 17.937 23.6704 17.8169 23.7505 17.7528C23.8346 17.6888 23.9106 17.6047 23.9227 17.5686C23.9347 17.5286 23.9267 17.4485 23.9026 17.3885C23.8826 17.3244 23.8266 17.2603 23.7825 17.2363C23.7225 17.2043 23.6384 17.2203 23.4502 17.2924C23.3141 17.3444 22.9577 17.5006 22.6614 17.6367C22.3651 17.7728 21.9047 17.969 21.6404 18.0771C21.3762 18.1852 20.9798 18.3534 20.7596 18.4575C20.5394 18.5616 20.0148 18.8099 19.5984 19.0181C19.182 19.2223 18.6855 19.4625 18.4974 19.5506C18.3092 19.6387 17.9688 19.7948 17.7366 19.8949C17.5044 19.999 17.1641 20.1672 16.9759 20.2713C16.7877 20.3714 16.6035 20.4875 16.5635 20.5275C16.5234 20.5716 16.4954 20.6597 16.4954 20.7598C16.4954 20.8839 16.5234 20.9479 16.6155 21.04C16.7156 21.1401 16.7597 21.1561 16.8638 21.1361C16.9358 21.1241 17.6245 20.8038 18.3973 20.4194C19.166 20.0351 19.8106 19.7187 19.8267 19.7187C19.8467 19.7187 20.0789 19.6106 20.3472 19.4785C20.6194 19.3464 20.8637 19.2383 20.8877 19.2383C20.9157 19.2383 20.9838 19.3063 21.0358 19.3904C21.0839 19.4705 21.236 19.6387 21.3642 19.7588C21.4963 19.8789 21.7365 20.0871 21.9007 20.2232C22.0648 20.3554 22.3051 20.5315 22.4292 20.6116C22.5573 20.6917 22.6614 20.7878 22.6614 20.8198C22.6614 20.8559 22.6134 20.8879 22.5293 20.8959C22.4612 20.9079 22.3371 20.9239 22.261 20.9319C22.185 20.9439 21.9888 20.988 21.8286 21.036C21.6725 21.0841 21.5403 21.1441 21.5403 21.1722C21.5403 21.1962 21.6524 21.2522 21.7886 21.2923C21.9287 21.3363 22.5813 21.5085 23.242 21.6847C23.9026 21.8568 24.4712 22.025 24.5032 22.061C24.5553 22.1131 24.5553 22.1491 24.4872 22.3693C24.4271 22.5695 24.4111 22.7457 24.4111 23.2422C24.4111 23.7627 24.4272 23.9509 24.5192 24.4033C24.5793 24.6996 24.6754 25.088 24.7314 25.2642C24.7875 25.4403 24.9316 25.8207 25.0518 26.105C25.1719 26.3893 25.3801 26.8337 25.5122 27.0859C25.6443 27.3382 25.9046 27.7706 26.0928 28.0469C26.285 28.3231 26.5532 28.6995 26.6974 28.8877C26.8415 29.0759 27.2299 29.5003 27.5622 29.8286C27.8945 30.1609 28.359 30.5853 28.5872 30.7735C28.8194 30.9617 29.1317 31.21 29.2879 31.3181C29.444 31.4302 29.7964 31.6664 30.0767 31.8466C30.3609 32.0268 30.8094 32.283 31.0776 32.4191C31.3499 32.5593 31.6942 32.7274 31.8424 32.7915C32.0065 32.8636 32.1106 32.9316 32.1026 32.9637C32.0946 32.9917 31.9305 33.0878 31.7303 33.1759C31.5301 33.264 31.2098 33.4001 31.0096 33.4802C30.8094 33.5562 30.3609 33.7244 30.0086 33.8485C29.6562 33.9767 29.2078 34.1328 29.0076 34.1929C28.8074 34.2529 28.403 34.369 28.1067 34.4531C27.8104 34.5372 27.4421 34.6373 27.2859 34.6733C27.1298 34.7094 26.8175 34.7734 26.5853 34.8135C26.353 34.8575 25.9566 34.9296 25.7044 34.9776C25.4521 35.0217 25.1519 35.0777 25.0437 35.0977C24.9316 35.1218 24.7074 35.1538 24.5433 35.1778C24.3791 35.1978 24.1188 35.2299 23.9627 35.2539C23.8065 35.2739 23.278 35.322 22.7815 35.354C22.2851 35.39 21.5844 35.4141 21.22 35.4101C20.8557 35.4101 20.2791 35.39 19.9388 35.374C19.5984 35.354 19.13 35.318 18.8978 35.2939C18.6655 35.2699 18.3052 35.2339 18.097 35.2099C17.8888 35.1898 17.5364 35.1418 17.3162 35.1098C17.096 35.0777 16.7196 35.0137 16.4754 34.9696C16.2312 34.9256 15.7747 34.8335 15.4544 34.7734C15.1341 34.7094 14.5055 34.5532 14.053 34.4331C13.6006 34.309 12.9079 34.1008 12.5115 33.9646C12.1151 33.8285 11.6026 33.6403 11.3704 33.5402C11.1382 33.4441 10.6697 33.2239 10.3294 33.0558C9.98906 32.8876 9.34043 32.5152 8.89199 32.231C8.44756 31.9427 7.84297 31.5223 7.55469 31.29C7.2624 31.0578 6.80996 30.6694 6.5457 30.4252C6.28145 30.181 5.92109 29.8286 5.74492 29.6444C5.56875 29.4602 5.29648 29.156 5.14033 28.9678C4.98418 28.7796 4.73994 28.4673 4.5958 28.2671C4.44766 28.0669 4.19541 27.6825 4.03125 27.4062C3.86709 27.13 3.6709 26.7816 3.59482 26.6255C3.51475 26.4693 3.37861 26.121 3.28252 25.8447C3.17842 25.5284 3.09834 25.2041 3.07031 24.9639C3.04629 24.7557 3.02627 24.3393 3.02627 24.043C3.02627 23.7467 3.04629 23.3583 3.07031 23.1821C3.09434 23.006 3.15039 22.6376 3.20244 22.3613C3.25049 22.0851 3.37061 21.5445 3.4667 21.1602C3.5668 20.7758 3.69893 20.1992 3.76299 19.8789C3.82705 19.5586 3.89111 19.2062 3.90713 19.0981C3.91914 18.99 3.97519 18.7018 4.02725 18.4575C4.0793 18.2133 4.16338 17.8089 4.21943 17.5566C4.27148 17.3044 4.34355 16.916 4.38359 16.6958C4.41963 16.4756 4.46768 16.2193 4.48769 16.1232C4.50771 16.0311 4.52373 15.871 4.52373 15.7669C4.52373 15.6588 4.54375 15.4946 4.56777 15.3945C4.5998 15.2504 4.5958 15.2023 4.54775 15.1543C4.4957 15.1022 4.47568 15.1102 4.37559 15.2184C4.31553 15.2864 4.1874 15.4866 4.09531 15.6588C4.00322 15.831 3.89512 15.9951 3.85508 16.0191C3.79102 16.0552 3.78701 16.0472 3.79902 15.9591C3.80703 15.903 3.93916 15.5387 4.0873 15.1543C4.23545 14.7699 4.51572 14.1373 4.71191 13.7529C4.90811 13.3686 5.18438 12.856 5.33252 12.6118C5.47666 12.3676 5.70488 11.9832 5.83701 11.751C5.97314 11.5187 6.19336 11.1744 6.3335 10.9822C6.47363 10.79 6.70186 10.4657 6.846 10.2655C6.99014 10.0653 7.21436 9.77304 7.34648 9.61689C7.47861 9.46074 7.79492 9.1124 8.04717 8.83613C8.29941 8.56386 8.67979 8.1915 8.88799 8.00732C9.09619 7.82714 9.44853 7.53486 9.66875 7.35869C9.88896 7.18251 10.3374 6.8582 10.6697 6.63798C10.998 6.41777 11.4785 6.12148 11.7308 5.97734C11.983 5.8332 12.4875 5.56093 12.8519 5.37675C13.2162 5.19257 13.7567 4.94433 14.053 4.82822C14.3493 4.7121 14.8018 4.54794 15.054 4.45986C15.3062 4.37578 15.8668 4.21562 16.2952 4.10751C16.7236 3.99941 17.2922 3.87529 17.5564 3.82724C17.8207 3.7832 18.2731 3.71914 18.5574 3.6791C18.9378 3.63105 19.3822 3.61103 20.199 3.60703C21.0318 3.60703 21.4763 3.62304 21.9207 3.67509C22.249 3.71513 22.6935 3.77519 22.9017 3.80722C23.1099 3.83925 23.5062 3.91132 23.7825 3.96738C24.0588 4.01943 24.5192 4.13154 24.8035 4.20761C25.0878 4.28769 25.5042 4.41582 25.7244 4.49189C25.9446 4.56796 26.4131 4.74414 26.7654 4.88427C27.1178 5.02441 27.6423 5.24863 27.9266 5.38476C28.2108 5.52089 28.6633 5.74912 28.9275 5.89326C29.1918 6.0414 29.6162 6.28564 29.8685 6.44179C30.1207 6.59794 30.6252 6.94628 30.9895 7.22255C31.3539 7.49482 31.7583 7.81113 31.8904 7.92324C32.0226 8.03535 32.3469 8.33164 32.6111 8.57988C32.8754 8.83212 33.2598 9.2205 33.464 9.44472C33.6722 9.66494 33.9965 10.0453 34.1847 10.2895C34.3769 10.5338 34.7492 11.0543 35.0135 11.4507C35.2817 11.8471 35.566 12.2955 35.6501 12.4517C35.7342 12.6078 35.9063 12.9201 36.0345 13.1523C36.1626 13.3846 36.3668 13.817 36.4869 14.1133C36.607 14.4096 36.7872 14.878 36.8913 15.1543C36.9914 15.4306 37.1115 15.7789 37.1556 15.9351C37.1996 16.0912 37.3117 16.5036 37.3998 16.856C37.4879 17.2083 37.584 17.6487 37.62 17.8369C37.6521 18.0251 37.7241 18.5096 37.7762 18.918C37.8282 19.3264 37.8923 19.947 37.9163 20.2993C37.9363 20.6517 37.9563 21.2723 37.9563 21.6807C37.9563 22.1571 37.9283 22.6656 37.8763 23.102C37.8322 23.4784 37.7642 23.9829 37.7201 24.2231C37.6761 24.4634 37.612 24.7797 37.58 24.9238C37.548 25.068 37.4679 25.4283 37.3958 25.7246C37.3277 26.0209 37.2837 26.2892 37.2957 26.3172C37.3117 26.3532 37.548 26.3652 38.2847 26.3652C38.8212 26.3652 39.2816 26.3492 39.3097 26.3332C39.3377 26.3172 39.3937 26.169 39.4378 26.0049C39.4818 25.8407 39.5819 25.4003 39.658 25.0239C39.7341 24.6476 39.8142 24.2191 39.8382 24.063C39.8622 23.9068 39.9103 23.5305 39.9383 23.2222C39.9703 22.9139 40.0063 22.3093 40.0224 21.8809C40.0384 21.3443 40.0264 20.7277 39.9823 19.9189C39.9423 19.2703 39.8862 18.5736 39.8542 18.3774C39.8182 18.1812 39.7381 17.7929 39.678 17.5166C39.614 17.2403 39.4618 16.6477 39.3417 16.1953C39.2216 15.7429 38.9934 15.0302 38.8372 14.6138C38.6811 14.1974 38.4088 13.5487 38.2286 13.1724C38.0484 12.796 37.7602 12.2394 37.584 11.9311C37.4078 11.6228 37.1355 11.1824 36.9834 10.9502C36.8272 10.718 36.555 10.3336 36.3748 10.0894C36.1946 9.84511 35.8623 9.4247 35.6301 9.14843C35.4019 8.87216 34.9895 8.41572 34.7132 8.13144C34.4369 7.84716 33.9524 7.38271 33.6321 7.09443C33.3118 6.81015 32.8914 6.4458 32.6912 6.28964C32.491 6.12949 32.1307 5.85722 31.8904 5.68105C31.6502 5.50087 31.2138 5.20458 30.9295 5.0164C30.6452 4.82822 30.1287 4.51992 29.7884 4.33574C29.448 4.14755 28.8955 3.86728 28.5672 3.71113C28.2349 3.55498 27.6703 3.31074 27.306 3.1706C26.9416 3.02646 26.4291 2.84628 26.1648 2.77021C25.9006 2.69013 25.4682 2.56601 25.2039 2.48994C24.9396 2.41386 24.5873 2.32177 24.4231 2.28974C24.259 2.25371 23.9627 2.19765 23.7625 2.16162C23.5623 2.12558 23.294 2.08154 23.1619 2.06152C23.0298 2.0415 22.7615 2.00546 22.5613 1.98144C22.3611 1.95742 21.9047 1.92138 21.5403 1.90136C21.176 1.88134 20.6074 1.86533 20.2791 1.86933C19.9468 1.86933 19.4263 1.88535 19.118 1.90136Z" fill="#1F1F1F"/>
</svg>
