<svg xmlns="http://www.w3.org/2000/svg" width="26" height="25" viewBox="0 0 26 25" fill="none">
<g clip-path="url(#clip0_1138_541)">
<path d="M8.36475 22.6565C17.7964 22.6565 22.9565 14.8406 22.9565 8.06471C22.9565 7.84499 22.9517 7.62038 22.9419 7.40065C23.9457 6.67471 24.812 5.77554 25.5 4.74538C24.5651 5.16132 23.5725 5.43296 22.5562 5.55104C23.6263 4.90955 24.4276 3.90181 24.8115 2.71462C23.8047 3.31127 22.7037 3.73216 21.5557 3.95924C20.7821 3.13732 19.7594 2.5931 18.6455 2.41074C17.5316 2.22838 16.3887 2.41804 15.3935 2.95038C14.3982 3.48271 13.606 4.32809 13.1394 5.35581C12.6728 6.38352 12.5577 7.53633 12.812 8.636C10.7734 8.5337 8.7791 8.00413 6.95831 7.08163C5.13753 6.15912 3.53093 4.86427 2.24268 3.28102C1.58792 4.4099 1.38756 5.74574 1.68232 7.01704C1.97709 8.28833 2.74486 9.3997 3.82959 10.1253C3.01524 10.0994 2.21872 9.88015 1.50586 9.48561V9.54909C1.50513 10.7338 1.91469 11.8821 2.66491 12.799C3.41513 13.7159 4.45971 14.3446 5.62109 14.5784C4.86672 14.7848 4.07498 14.8149 3.30713 14.6663C3.63485 15.6851 4.27247 16.5762 5.13101 17.2152C5.98955 17.8542 7.02617 18.2092 8.09619 18.2307C6.27961 19.6577 4.0356 20.4317 1.72559 20.428C1.31592 20.4274 0.906666 20.4023 0.5 20.3528C2.84673 21.8583 5.57659 22.658 8.36475 22.6565Z" fill="#475569"/>
</g>
<defs>
<clipPath id="clip0_1138_541">
<rect width="25" height="25" fill="white" transform="translate(0.5)"/>
</clipPath>
</defs>
</svg>
