<svg xmlns="http://www.w3.org/2000/svg" viewBox="0 0 612 382" width="612pt" height="382pt">
  <path fill="currentColor" opacity="1" d=" M 257.63 81.30 C 265.88 79.04 274.51 78.84 282.95 77.62 C 294.01 77.45 305.16 76.87 316.14 78.48 C 323.04 79.24 329.99 79.75 336.86 80.79 C 343.28 82.42 350.05 82.85 356.14 85.65 C 344.04 86.28 332.06 84.38 319.99 84.16 C 307.41 82.22 294.67 82.72 282.00 82.23 C 273.90 81.22 265.73 82.17 257.63 81.30 Z" />
  <path fill="currentColor" opacity="1" d=" M 170.01 88.42 C 185.06 84.98 200.62 85.36 215.96 85.57 C 219.14 85.58 222.29 86.09 225.39 86.76 C 220.58 89.15 215.11 88.34 209.94 88.64 C 199.27 89.27 188.59 89.78 178.01 91.36 C 171.75 91.76 165.48 92.81 159.20 92.22 C 162.43 90.04 166.22 89.06 170.01 88.42 Z" />
  <path fill="currentColor" opacity="1" d=" M 418.67 89.57 C 420.26 86.80 423.42 84.96 426.66 85.76 C 432.91 87.17 436.85 92.67 440.26 97.64 C 441.39 99.85 443.93 99.37 445.99 99.46 C 450.52 99.37 454.92 100.74 459.46 100.72 C 458.59 99.62 457.72 98.52 456.86 97.42 C 464.51 98.02 471.62 101.01 478.80 103.44 C 478.73 102.75 478.58 101.36 478.50 100.67 C 486.31 104.59 493.34 109.85 500.76 114.43 C 505.49 117.71 511.31 120.61 513.43 126.34 C 514.95 131.76 510.28 136.00 509.81 141.18 C 509.24 145.86 507.75 150.46 505.22 154.46 C 502.83 158.22 499.32 161.05 495.95 163.88 C 490.31 168.30 484.71 172.93 478.12 175.89 C 476.60 176.80 474.66 177.32 473.64 178.85 C 472.14 181.70 472.21 185.04 472.28 188.17 C 475.16 190.07 478.77 189.31 482.03 189.53 C 488.10 189.35 494.11 190.15 500.14 190.73 C 498.51 194.77 494.29 196.53 490.65 198.33 C 487.39 199.79 484.22 201.47 480.86 202.66 C 469.51 206.06 458.09 209.35 446.33 210.97 C 437.36 213.18 428.09 213.27 419.01 214.70 C 410.09 216.24 401.00 215.99 392.05 217.21 C 385.84 217.55 379.61 217.54 373.40 217.25 C 375.64 212.72 379.90 209.85 383.29 206.29 C 389.47 200.14 395.70 193.96 402.92 189.04 C 419.96 177.28 437.13 165.73 454.69 154.76 C 461.14 150.89 467.34 145.55 475.17 145.05 C 468.76 149.40 461.85 152.97 455.55 157.49 C 450.49 161.17 445.23 164.57 440.28 168.38 C 436.23 171.65 432.77 175.56 428.81 178.93 C 419.57 186.71 412.03 196.37 405.93 206.76 C 412.67 201.24 418.44 194.62 425.42 189.37 C 430.42 185.52 434.67 180.70 440.18 177.53 C 436.86 185.73 429.78 192.18 428.09 201.09 C 433.85 193.16 438.30 184.27 445.01 177.04 C 451.55 170.24 457.81 163.13 465.18 157.19 C 470.02 153.41 474.75 148.74 481.11 147.86 C 476.56 152.48 470.68 155.46 465.93 159.86 C 459.51 164.82 454.58 171.31 449.70 177.71 C 446.73 181.73 444.01 186.12 443.05 191.10 C 450.42 183.18 456.29 173.67 465.46 167.56 C 472.83 162.88 477.83 154.87 486.15 151.67 C 480.93 158.17 473.80 162.92 468.91 169.74 C 464.64 175.91 460.28 182.43 459.13 190.00 C 463.04 183.12 467.00 176.21 472.01 170.05 C 474.76 166.68 478.88 164.97 482.16 162.22 C 485.12 159.79 488.22 157.53 491.56 155.65 C 490.85 157.04 490.15 158.43 489.49 159.84 C 495.64 159.81 500.36 155.10 503.09 150.02 C 504.47 147.09 505.05 143.88 505.82 140.75 C 499.92 136.83 493.27 133.51 486.01 133.60 C 473.87 132.79 462.30 137.30 451.44 142.20 C 444.95 145.10 439.11 149.19 433.18 153.06 C 430.84 154.58 428.56 156.32 427.16 158.79 C 434.04 157.27 440.18 153.43 447.13 152.13 C 438.32 158.23 427.96 161.89 419.55 168.64 C 408.97 176.92 398.35 185.28 389.11 195.08 C 382.86 202.55 375.63 209.20 370.42 217.51 C 354.93 217.59 339.43 217.47 323.94 217.27 C 306.07 214.97 287.92 216.20 270.10 213.42 C 234.99 209.79 199.90 202.16 167.73 187.28 C 174.55 186.92 180.90 189.72 187.51 190.87 C 204.59 195.02 221.76 198.78 239.18 201.19 C 254.12 202.46 268.91 205.63 283.95 205.74 C 294.94 206.76 305.98 206.54 317.00 206.66 C 333.26 206.78 349.58 205.85 365.56 202.72 C 366.76 198.36 370.43 195.51 373.60 192.59 C 377.90 188.90 382.46 185.52 386.60 181.65 C 390.79 177.72 395.90 174.83 399.64 170.42 C 397.49 170.83 395.31 171.34 393.45 172.55 C 385.40 177.54 378.23 183.82 371.55 190.50 C 368.03 193.97 365.46 198.38 361.45 201.34 C 346.34 201.77 331.19 201.53 316.06 201.41 C 322.77 190.98 331.27 181.68 341.09 174.10 C 345.57 170.54 350.38 167.41 355.00 164.03 C 347.65 164.89 341.74 169.70 336.02 173.95 C 327.83 180.15 321.41 188.35 316.11 197.08 C 314.83 199.23 312.98 201.96 310.07 201.35 C 297.68 199.73 285.10 200.49 272.71 198.91 C 259.08 197.92 245.59 195.49 232.09 193.42 C 225.90 192.70 219.94 190.76 213.78 189.88 C 208.43 189.18 203.28 187.51 198.04 186.31 C 201.24 178.40 207.69 172.48 213.12 166.10 C 217.80 160.54 224.45 157.14 229.27 151.73 C 224.22 152.76 220.31 156.30 216.23 159.19 C 207.21 165.82 201.28 175.54 195.47 184.88 C 189.26 184.56 183.58 181.82 177.55 180.63 C 167.13 177.78 156.65 175.13 146.23 172.30 C 140.89 171.02 135.42 170.07 130.19 168.40 C 135.14 167.97 140.04 168.93 144.95 169.31 C 154.69 169.54 164.35 167.72 173.59 164.72 C 176.03 156.11 181.53 148.89 187.09 142.04 C 197.14 130.03 210.39 120.95 224.88 115.10 C 232.28 111.52 240.54 110.35 247.94 106.79 C 234.97 104.90 223.42 112.53 211.88 117.12 C 214.39 113.14 218.71 111.06 222.55 108.61 C 227.99 105.13 234.25 103.29 240.15 100.76 C 250.91 96.42 262.53 95.01 273.95 93.55 C 282.16 92.83 290.25 94.38 298.37 95.33 C 311.27 97.33 323.59 101.80 335.67 106.61 C 343.26 109.98 350.68 114.22 358.99 115.50 C 364.97 115.85 371.18 116.20 376.91 114.12 C 387.18 110.45 396.77 105.06 406.00 99.29 C 409.90 97.13 414.46 96.69 418.84 96.53 C 418.65 94.22 418.29 91.88 418.67 89.57 M 401.37 114.97 C 400.54 120.23 403.78 124.64 405.93 129.13 C 401.16 131.07 395.92 133.22 393.05 137.74 C 395.16 137.19 397.16 136.29 399.05 135.19 C 403.58 132.55 408.59 130.87 413.21 128.39 C 411.87 125.86 410.59 123.28 409.82 120.52 C 410.66 120.32 412.34 119.93 413.18 119.73 C 411.52 116.54 409.92 113.20 410.21 109.49 C 416.75 108.35 422.56 111.61 428.46 113.79 C 426.41 109.17 422.86 105.16 418.39 102.79 C 410.42 99.75 401.25 106.58 401.37 114.97 M 451.95 118.08 C 456.16 118.55 460.43 118.52 464.64 118.07 C 460.92 115.22 455.60 114.92 451.95 118.08 M 267.53 117.26 C 259.54 119.44 251.57 122.03 244.49 126.42 C 240.85 128.77 236.57 130.60 234.33 134.53 C 236.61 133.90 238.84 133.10 240.91 131.94 C 247.88 128.05 255.20 124.84 262.54 121.74 C 266.29 120.23 270.16 118.93 273.58 116.72 C 271.55 116.62 269.50 116.71 267.53 117.26 M 293.60 117.93 C 288.43 119.25 282.94 120.52 278.70 123.97 C 282.09 123.74 285.28 122.58 288.49 121.56 C 295.32 119.71 302.26 118.31 309.23 117.14 C 304.03 116.26 298.76 117.18 293.60 117.93 M 503.48 121.20 C 500.16 121.95 498.88 125.56 497.40 128.21 C 501.73 129.54 506.27 130.16 510.80 130.19 C 510.70 128.39 510.91 126.53 510.34 124.79 C 508.69 122.75 506.34 120.54 503.48 121.20 M 363.86 126.48 C 358.08 127.47 352.24 128.63 346.88 131.09 C 351.83 131.95 356.86 131.12 361.83 131.65 C 359.80 133.41 357.70 135.10 355.80 137.01 C 360.78 135.77 365.15 132.95 369.65 130.58 C 374.03 128.00 378.83 126.01 382.65 122.57 C 376.23 122.96 370.14 125.30 363.86 126.48 M 456.07 124.04 C 456.47 125.71 456.96 127.36 457.49 128.99 C 459.09 128.11 460.65 127.14 462.15 126.09 C 460.24 125.08 458.19 124.40 456.07 124.04 M 204.20 136.22 C 200.92 139.02 198.04 142.32 196.01 146.13 C 201.23 143.55 204.77 138.68 209.62 135.53 C 214.49 131.53 220.53 129.34 225.32 125.26 C 217.32 126.58 210.21 130.96 204.20 136.22 M 401.96 143.06 C 408.36 139.31 414.80 135.27 420.05 129.99 C 412.72 131.79 406.01 136.70 401.96 143.06 M 256.12 159.06 C 254.00 161.85 251.68 164.67 250.96 168.19 C 258.06 160.90 265.11 153.45 273.51 147.59 C 277.40 144.39 282.65 142.90 285.60 138.61 C 273.88 141.83 263.60 149.60 256.12 159.06 M 292.06 147.22 C 282.88 151.38 274.63 157.44 267.67 164.70 C 264.73 167.95 261.80 171.39 260.35 175.59 C 264.77 173.09 267.76 168.86 271.51 165.56 C 277.55 160.15 284.00 155.17 290.90 150.90 C 293.27 149.43 295.53 147.77 297.47 145.75 C 295.63 146.10 293.77 146.45 292.06 147.22 M 294.54 162.54 C 292.07 164.97 290.10 167.94 289.57 171.43 C 293.32 168.56 295.98 164.58 299.44 161.40 C 302.35 158.51 305.95 156.32 308.38 152.95 C 302.74 154.29 298.51 158.59 294.54 162.54 Z" />
  <path fill="currentColor" opacity="1" d=" M 114.96 108.62 C 139.58 105.09 164.66 102.58 189.48 105.70 C 187.49 106.86 185.31 107.75 182.97 107.69 C 173.25 108.06 163.58 109.12 153.96 110.49 C 139.72 111.68 125.65 114.30 111.46 115.90 C 106.36 116.77 101.22 117.45 96.19 118.68 C 89.68 120.33 82.90 120.75 76.47 122.73 C 67.60 125.34 58.76 128.04 49.91 130.69 C 46.02 132.10 42.11 133.62 37.92 133.80 C 44.06 129.60 50.97 126.75 57.82 123.96 C 70.44 118.50 83.72 114.68 97.12 111.71 C 103.12 110.99 109.10 110.12 114.96 108.62 Z" />
  <path fill="currentColor" opacity="1" d=" M 156.99 121.66 C 164.94 121.05 172.94 121.43 180.79 122.81 C 181.26 123.09 182.20 123.64 182.67 123.92 C 175.62 124.66 168.53 125.04 161.56 126.40 C 151.74 127.26 141.92 128.12 132.15 129.37 C 126.60 129.62 121.05 129.85 115.50 130.20 C 116.85 129.00 118.11 127.52 119.96 127.11 C 132.05 123.87 144.63 123.30 156.99 121.66 Z" />
  <path fill="currentColor" opacity="1" d=" M 529.31 124.65 C 538.64 122.84 548.43 124.11 557.21 127.65 C 558.02 128.40 558.78 129.20 559.49 130.06 C 556.66 129.69 553.94 128.84 551.23 128.01 C 545.64 126.28 539.73 126.72 533.98 126.43 C 532.23 126.47 530.78 125.42 529.31 124.65 Z" />
  <path fill="currentColor" opacity="1" d=" M 520.73 132.35 C 529.16 130.20 539.00 131.56 545.99 136.91 C 540.96 136.22 536.26 133.99 531.17 133.64 C 527.66 133.42 524.15 133.18 520.73 132.35 Z" />
  <path fill="currentColor" opacity="1" d=" M 155.80 139.53 C 160.45 136.63 166.05 137.26 171.25 137.66 C 166.27 139.27 161.03 139.99 155.80 139.53 Z" />
  <path fill="currentColor" opacity="1" d=" M 71.04 140.65 C 81.80 137.94 92.95 136.78 104.04 137.53 C 115.96 138.96 127.78 141.46 139.09 145.54 C 150.24 148.58 159.87 155.20 170.40 159.73 C 170.45 160.13 170.56 160.93 170.61 161.33 C 162.30 164.05 153.52 163.31 144.92 163.26 C 142.20 163.08 139.55 162.36 136.86 161.95 C 124.54 160.75 112.43 157.73 100.01 157.45 C 86.50 157.28 72.81 156.89 59.57 160.01 C 53.70 161.35 47.77 162.50 42.14 164.72 C 35.28 166.62 29.05 170.25 22.21 172.17 C 25.69 165.89 31.26 161.10 36.76 156.65 C 46.74 148.66 58.98 144.38 71.04 140.65 Z" />
  <path fill="currentColor" opacity="1" d=" M 517.15 140.23 C 527.51 141.74 537.17 146.26 545.47 152.56 C 546.76 153.55 547.41 155.09 548.23 156.46 C 543.04 154.27 538.66 150.61 533.57 148.25 C 528.77 145.73 523.54 144.26 518.45 142.46 C 518.13 141.90 517.47 140.79 517.15 140.23 Z" />
  <path fill="currentColor" opacity="1" d=" M 508.13 156.01 C 514.82 161.01 518.51 169.52 517.65 177.82 C 517.17 177.71 516.19 177.49 515.71 177.38 C 515.47 169.54 510.86 163.07 508.13 156.01 Z" />
  <path fill="currentColor" opacity="1" d=" M 554.37 172.25 C 554.73 172.46 555.46 172.90 555.82 173.11 C 559.72 181.47 562.47 190.70 561.00 200.00 C 559.50 208.16 555.64 215.86 550.08 222.02 C 544.64 227.94 538.69 233.49 531.72 237.57 C 516.60 246.43 499.97 252.50 482.98 256.64 C 471.91 258.23 461.29 262.31 450.07 262.94 C 443.97 263.45 437.91 264.23 431.88 265.25 C 404.98 267.33 377.94 266.90 350.98 266.23 C 344.65 265.33 338.21 265.88 331.91 264.75 C 322.64 263.66 313.34 262.99 304.03 262.39 C 290.37 260.16 276.61 258.39 263.14 255.09 C 253.54 253.08 244.19 250.12 234.83 247.23 C 242.28 246.93 249.62 248.31 257.02 248.87 C 265.05 249.64 272.94 251.55 281.02 251.76 C 293.63 253.76 306.38 254.17 319.02 255.84 C 325.30 256.81 331.67 256.65 338.00 257.14 C 358.66 257.67 379.33 257.76 399.99 257.58 C 411.36 257.34 422.75 257.37 434.07 256.24 C 444.06 254.52 454.23 254.09 464.09 251.67 C 484.22 248.55 503.93 242.62 522.09 233.33 C 530.43 229.48 537.78 223.74 544.07 217.08 C 551.43 209.77 556.13 199.46 555.70 188.99 C 555.86 183.37 555.41 177.77 554.37 172.25 Z" />
  <path fill="currentColor" opacity="1" d=" M 79.34 172.46 C 89.10 178.91 97.33 187.47 107.20 193.82 C 128.49 209.95 152.85 221.46 177.60 231.20 C 186.83 234.07 195.86 237.56 205.10 240.41 C 196.25 241.31 187.59 239.13 178.95 237.63 C 173.88 236.76 169.09 234.87 164.27 233.18 C 150.83 229.33 138.10 223.20 126.26 215.82 C 114.38 208.69 103.23 200.32 93.05 190.92 C 89.59 187.67 86.85 183.78 83.86 180.13 C 81.95 177.83 80.35 175.28 79.34 172.46 Z" />
  <path fill="currentColor" opacity="1" d=" M 532.00 178.20 C 536.85 183.02 536.31 190.41 535.23 196.58 C 532.03 204.05 525.95 210.24 518.71 213.89 C 514.88 215.88 510.77 217.88 506.33 217.55 C 510.63 213.33 516.13 210.62 520.46 206.42 C 524.55 202.41 528.38 197.86 530.15 192.31 C 532.05 187.84 531.51 182.92 532.00 178.20 Z" />
  <path fill="currentColor" opacity="1" d=" M 120.42 179.29 C 125.93 179.60 130.21 183.51 134.97 185.85 C 151.22 194.66 167.92 202.64 185.06 209.56 C 210.73 219.07 237.31 225.97 264.16 231.21 C 274.76 232.75 285.24 235.15 295.95 235.79 C 311.23 238.11 326.57 240.07 341.99 241.11 C 352.43 241.55 362.79 242.99 373.11 244.58 C 365.08 245.15 357.03 245.33 349.05 246.39 C 341.37 246.71 333.68 246.46 326.00 246.53 C 320.62 246.68 315.36 245.30 309.98 245.35 C 301.98 244.63 293.90 244.38 286.02 242.67 C 263.49 240.29 241.35 235.41 219.31 230.36 C 209.21 226.94 198.97 223.95 188.95 220.31 C 173.97 214.59 159.58 207.38 145.74 199.30 C 136.87 193.26 127.43 187.57 120.42 179.29 Z" />
  <path fill="currentColor" opacity="1" d=" M 50.63 183.84 C 56.49 187.31 60.52 192.98 65.66 197.33 C 72.85 203.69 81.15 208.57 88.89 214.20 C 98.47 220.61 108.91 225.60 119.12 230.91 C 137.02 238.74 155.25 245.85 173.99 251.40 C 179.10 253.36 184.66 254.22 189.39 257.11 C 183.24 257.76 177.11 256.65 171.17 255.19 C 153.83 252.36 136.89 247.20 120.64 240.53 C 110.56 236.09 100.19 232.10 91.08 225.78 C 81.97 219.43 72.51 213.24 65.22 204.74 C 60.81 200.11 56.62 195.26 53.01 189.97 C 51.75 188.14 51.18 185.96 50.63 183.84 Z" />
  <path fill="currentColor" opacity="1" d=" M 584.62 193.26 C 585.03 193.40 585.84 193.67 586.25 193.81 C 586.80 201.62 587.87 210.10 584.00 217.28 C 582.26 220.92 579.28 223.77 575.93 225.93 C 579.93 215.40 584.34 204.71 584.62 193.26 Z" />
  <path fill="currentColor" opacity="1" d=" M 25.78 199.87 C 34.15 207.93 41.87 216.73 50.96 224.02 C 65.97 235.40 82.25 245.09 99.47 252.74 C 111.24 258.63 123.60 263.20 135.92 267.78 C 140.51 269.48 145.49 270.29 149.59 273.14 C 144.63 273.44 139.66 272.67 134.88 271.39 C 121.33 268.55 107.88 264.86 95.02 259.71 C 76.53 250.61 57.62 240.91 43.53 225.50 C 38.28 220.30 33.85 214.36 29.73 208.26 C 27.96 205.70 26.62 202.87 25.78 199.87 Z" />
  <path fill="currentColor" opacity="1" d=" M 477.67 213.01 C 482.23 212.53 486.53 210.77 491.10 210.41 C 467.97 223.36 441.13 227.85 414.94 229.14 C 406.93 229.23 399.02 230.82 391.00 230.58 C 380.32 230.54 369.63 230.81 358.95 230.41 C 345.86 228.65 332.55 228.61 319.56 226.08 C 315.32 225.37 310.92 225.49 306.86 223.90 C 311.57 223.55 316.29 223.55 321.01 223.61 C 345.68 223.86 370.36 223.83 395.04 223.49 C 400.04 223.37 404.97 222.37 409.99 222.54 C 415.39 222.66 420.63 221.20 425.97 220.75 C 436.74 220.26 447.30 217.97 457.97 216.56 C 464.60 215.73 471.01 213.64 477.67 213.01 Z" />
  <path fill="currentColor" opacity="1" d=" M 458.93 234.39 C 466.01 233.75 472.86 230.81 480.05 231.65 C 477.75 233.75 474.74 234.65 471.75 235.22 C 461.28 237.80 450.68 240.02 439.95 241.13 C 429.50 241.58 418.94 243.51 408.52 241.76 C 417.09 240.40 425.69 239.09 434.24 237.60 C 436.48 236.10 439.16 236.13 441.75 236.43 C 440.27 236.76 438.76 236.87 437.31 237.28 L 437.28 237.60 C 444.57 237.11 451.64 234.99 458.93 234.39 Z" />
  <path fill="currentColor" opacity="1" d=" M 537.98 253.97 C 546.66 248.94 554.53 242.64 563.17 237.55 C 561.33 242.80 556.64 246.18 552.38 249.40 C 545.75 253.95 538.50 257.77 530.76 260.03 C 532.69 257.51 535.21 255.51 537.98 253.97 Z" />
  <path fill="currentColor" opacity="1" d=" M 238.28 266.66 C 250.19 266.38 261.88 269.08 273.72 269.95 C 283.54 271.32 293.41 272.35 303.28 273.34 C 311.90 274.84 320.63 275.49 329.29 276.67 C 325.65 279.14 321.16 278.49 317.01 278.62 C 308.35 278.65 299.68 278.95 291.03 278.37 C 284.80 277.40 278.53 276.77 272.29 275.85 C 262.23 273.60 252.17 271.43 242.12 269.16 C 240.63 268.69 239.48 267.58 238.28 266.66 Z" />
  <path fill="currentColor" opacity="1" d=" M 464.03 275.79 C 471.31 275.53 478.57 273.46 485.85 274.88 C 480.65 277.00 474.97 277.55 469.53 278.84 C 447.83 282.23 426.06 286.46 403.99 285.45 C 410.07 283.01 416.67 282.73 423.05 281.57 C 430.00 280.40 436.90 278.89 443.95 278.39 C 450.62 277.36 457.27 276.15 464.03 275.79 Z" />
  <path fill="currentColor" opacity="1" d=" M 203.15 288.71 C 212.17 288.44 221.06 290.38 230.04 290.79 C 239.11 291.84 248.16 293.21 257.29 293.76 C 268.13 295.47 279.15 295.11 290.04 296.32 C 294.02 296.57 298.01 296.37 301.99 296.70 C 311.26 298.02 320.66 297.42 330.00 297.74 C 345.31 298.66 360.67 298.12 376.00 298.36 C 382.90 298.56 389.85 297.94 396.72 298.82 C 394.72 300.18 392.47 301.27 390.00 301.25 C 382.26 301.53 374.54 302.32 366.88 303.40 C 339.72 305.26 312.41 305.26 285.26 303.32 C 278.53 302.28 271.75 301.61 264.95 301.26 C 253.22 299.97 241.76 296.95 230.05 295.49 C 224.30 294.79 218.75 293.00 213.02 292.19 C 209.58 291.59 205.58 291.69 203.15 288.71 Z" />
</svg>
