<svg width="41" height="41" viewBox="0 0 41 41" fill="none" xmlns="http://www.w3.org/2000/svg">
<g id="ns Logo">
<path id="Vector" d="M31.5908 16.6843C31.5507 16.6963 31.5387 16.7603 31.5427 16.8885C31.5467 16.9926 31.5707 17.1047 31.5988 17.1407C31.6268 17.1767 31.803 17.3169 31.9912 17.449C32.1793 17.5771 32.3595 17.7173 32.3915 17.7573C32.4236 17.7973 32.5757 17.9295 32.7319 18.0536C32.888 18.1817 33.1923 18.4139 33.4125 18.5701C33.6328 18.7303 33.841 18.8624 33.873 18.8584C33.905 18.8584 33.9731 18.8304 34.0211 18.7983C34.0732 18.7663 34.1332 18.7022 34.1533 18.6582C34.1813 18.6021 34.1773 18.5421 34.1373 18.45C34.1092 18.3779 34.0051 18.2418 33.909 18.1537C33.8129 18.0616 33.6328 17.9175 33.5086 17.8334C33.3885 17.7453 33.1163 17.5491 32.9081 17.393C32.6999 17.2328 32.3956 17.0326 32.2314 16.9445C32.0672 16.8524 31.867 16.7563 31.791 16.7243C31.7109 16.6923 31.6228 16.6763 31.5908 16.6843Z" fill="black"/>
<path id="Vector_2" d="M32.0875 16.1758C32.0435 16.1958 31.9914 16.2639 31.9754 16.3239C31.9554 16.392 31.9594 16.4721 31.9874 16.5241C32.0154 16.5802 32.1596 16.6763 32.3638 16.7723C32.544 16.8564 32.8443 16.9725 33.0324 17.0286C33.2206 17.0847 33.6691 17.2328 34.0334 17.3529C34.3978 17.473 34.8702 17.6172 35.0864 17.6732C35.2986 17.7293 35.5389 17.7773 35.615 17.7773C35.7151 17.7773 35.7871 17.7453 35.8552 17.6772C35.9112 17.6212 35.9553 17.5291 35.9553 17.465C35.9553 17.401 35.9193 17.3209 35.8672 17.2728C35.8151 17.2248 35.7551 17.1767 35.7351 17.1647C35.7151 17.1527 35.3987 17.0526 35.0344 16.9445C34.67 16.8324 34.0775 16.6602 33.7131 16.5561C33.3487 16.456 32.9163 16.3319 32.7522 16.2759C32.588 16.2238 32.3878 16.1718 32.3117 16.1598C32.2357 16.1517 32.1356 16.1557 32.0875 16.1758Z" fill="black"/>
<path id="Vector_3" d="M22.6623 16.1558C22.3661 16.2559 21.8415 16.4 21.5012 16.4801C21.1609 16.5602 20.6444 16.6883 20.3601 16.7644C20.0758 16.8444 19.6594 16.9646 19.4392 17.0366C19.219 17.1087 18.8867 17.1928 18.6985 17.2288C18.5103 17.2649 18.258 17.3009 18.1379 17.3169C18.0178 17.3289 17.8376 17.377 17.7375 17.429C17.6214 17.4851 17.5293 17.5692 17.4773 17.6652C17.4132 17.7814 17.4052 17.8334 17.4372 17.9255C17.4653 17.9976 17.5333 18.0656 17.6374 18.1137C17.7936 18.1858 17.8016 18.1858 18.0178 18.1057C18.1379 18.0576 18.5824 17.9375 18.9988 17.8414C19.4152 17.7413 20.1359 17.5611 20.6003 17.441C21.0608 17.3209 21.7134 17.1287 22.0417 17.0166C22.3741 16.9085 22.8025 16.7524 23.0027 16.6763C23.2029 16.6002 23.4111 16.4881 23.4751 16.428C23.5432 16.36 23.5872 16.2759 23.5832 16.2078C23.5832 16.1438 23.5552 16.0677 23.5232 16.0357C23.4912 16.0036 23.4031 15.9756 23.331 15.9796C23.2629 15.9796 22.9586 16.0597 22.6623 16.1558Z" fill="black"/>
<path id="Vector_4" d="M18.758 15.4431C18.2976 15.4551 18.1855 15.4711 18.1254 15.5272C18.0894 15.5632 18.0453 15.6393 18.0333 15.6953C18.0213 15.7514 18.0373 15.8475 18.0654 15.9075C18.0934 15.9676 18.1454 16.0277 18.1775 16.0397C18.2095 16.0557 18.7861 16.0717 19.4587 16.0757C20.1314 16.0837 21.0483 16.0757 21.5007 16.0557C21.9532 16.0357 22.4576 15.9916 22.6218 15.9556C22.858 15.9075 22.9461 15.8715 23.0342 15.7754C23.1023 15.6993 23.1383 15.6193 23.1343 15.5552L23.1223 15.4591C20.1754 15.4351 19.0663 15.4351 18.758 15.4431Z" fill="black"/>
<path id="Vector_5" d="M32.776 15.2669C32.7199 15.3269 32.6759 15.411 32.6719 15.4631C32.6719 15.5151 32.6999 15.5872 32.7399 15.6232C32.78 15.6593 32.8561 15.7073 32.9121 15.7273C32.9682 15.7474 33.5047 15.7714 34.1053 15.7794L35.2023 15.7954C35.3505 15.6232 35.3945 15.5432 35.3945 15.5031C35.3985 15.4671 35.3665 15.391 35.3265 15.339L35.2544 15.2429C33.7329 15.2309 33.2004 15.2148 33.0883 15.1988C32.8961 15.1668 32.8721 15.1748 32.776 15.2669Z" fill="black"/>
<path id="Vector_6" d="M20.2122 11.5353C20.048 11.5513 19.8839 11.5993 19.7438 11.6754C19.6156 11.7435 19.4755 11.8596 19.4114 11.9517C19.3474 12.0398 19.2753 12.1759 19.2513 12.252C19.2232 12.328 19.2032 12.5402 19.1992 12.7204C19.1992 12.9847 19.2152 13.0648 19.2713 13.1208C19.3354 13.1849 19.4595 13.1929 20.7127 13.2049C21.4654 13.2129 22.1221 13.2089 22.1701 13.1969C22.2222 13.1849 22.2622 13.1448 22.2622 13.1128C22.2622 13.0808 22.1501 12.8445 22.01 12.5843C21.8738 12.328 21.6896 12.0398 21.6016 11.9437C21.5135 11.8436 21.3493 11.7194 21.2412 11.6674C21.1291 11.6153 20.9129 11.5593 20.7527 11.5433C20.5926 11.5233 20.3483 11.5233 20.2122 11.5353Z" fill="black"/>
<path id="Vector_7" d="M18.198 5.68555C17.8657 5.70157 17.3251 5.74561 16.9968 5.78164C16.6645 5.81768 16.144 5.89375 15.8357 5.94981C15.5274 6.00586 15.0309 6.10996 14.7346 6.18604C14.4383 6.25811 13.9859 6.39024 13.7336 6.47832C13.4814 6.56641 13.0369 6.73057 12.7527 6.84268C12.4684 6.95879 11.9959 7.17901 11.7117 7.33116C11.4274 7.48731 11.019 7.73155 10.8108 7.86768C10.6026 8.00782 10.2502 8.27207 10.03 8.46026C9.8098 8.64444 9.43744 8.99278 9.20521 9.23301C8.97298 9.47325 8.63265 9.86163 8.44447 10.0939C8.26029 10.3301 8.02806 10.6624 7.93197 10.8346C7.83587 11.0107 7.6597 11.303 7.54359 11.4912C7.42748 11.6794 7.17123 12.1559 6.97503 12.5522C6.77884 12.9486 6.48656 13.6173 6.3264 14.0337C6.16625 14.4501 5.96605 15.0307 5.88197 15.3149C5.80189 15.5992 5.67777 16.0437 5.6097 16.2959C5.54164 16.5481 5.41751 17.1167 5.32943 17.5571C5.24134 17.9976 5.08519 18.7583 4.98509 19.2508C4.885 19.7393 4.74085 20.524 4.66478 20.9925C4.58871 21.4569 4.50462 22.0655 4.4806 22.3418C4.45257 22.6381 4.44457 23.1626 4.45658 23.6231C4.46859 24.1155 4.50062 24.5159 4.54066 24.7041C4.57669 24.8683 4.64476 25.1285 4.6888 25.2847C4.73685 25.4408 4.85296 25.7371 4.95306 25.9453C5.04916 26.1535 5.22132 26.4778 5.33343 26.666C5.44554 26.8542 5.66175 27.1665 5.81791 27.3667C5.97406 27.5669 6.31839 27.9673 6.58265 28.2596C6.85091 28.5559 7.21927 28.9282 7.40746 29.0844C7.59564 29.2445 7.93597 29.5288 8.1682 29.713C8.40042 29.8932 8.80482 30.1935 9.06908 30.3736C9.33333 30.5498 9.75374 30.8181 9.99798 30.9662C10.2462 31.1104 10.7507 31.3826 11.1191 31.5668C11.4914 31.751 11.9639 31.9752 12.1721 32.0633C12.3803 32.1514 12.6326 32.2475 12.7327 32.2835C12.8327 32.3195 13.109 32.4116 13.3533 32.4877C13.5975 32.5638 14.126 32.7239 14.5344 32.844C14.9428 32.9682 15.4193 33.0963 15.5954 33.1323C15.7716 33.1684 16.0519 33.2284 16.216 33.2725C16.3802 33.3125 16.8046 33.3886 17.157 33.4446C17.5093 33.5007 17.9417 33.5648 18.1179 33.5888C18.2941 33.6128 18.5904 33.6488 18.7785 33.6689C18.9667 33.6929 19.4072 33.7289 19.7595 33.7529C20.1118 33.777 20.6203 33.813 20.8886 33.837C21.1609 33.857 21.7775 33.8731 22.2619 33.8731C22.7464 33.8731 23.1708 33.865 23.2029 33.853C23.2349 33.841 23.2629 33.801 23.2629 33.7609C23.2629 33.7249 23.1628 33.5487 23.0427 33.3726C22.9266 33.1964 22.5903 32.792 22.302 32.4717C22.0097 32.1514 21.5733 31.6869 21.329 31.4387C21.0808 31.1864 20.4562 30.5738 19.9397 30.0773C19.4232 29.5769 18.7705 28.9683 18.4943 28.728C18.218 28.4878 17.7495 28.0754 17.4533 27.8191C17.157 27.5589 16.7646 27.2306 16.5764 27.0864C16.3882 26.9383 15.9318 26.5899 15.5554 26.3097C15.179 26.0294 14.5704 25.577 14.1941 25.3047C13.8177 25.0324 13.2331 24.612 12.8928 24.3718C12.5525 24.1315 12.1561 23.8433 12.0119 23.7272C11.8678 23.611 11.6556 23.3908 11.5435 23.2387C11.4274 23.0865 11.2432 22.7822 11.1351 22.562C11.023 22.3418 10.8828 22.0015 10.8148 21.8013C10.7507 21.6011 10.6546 21.2407 10.6066 21.0005C10.5345 20.6401 10.5145 20.4199 10.5145 19.7993C10.5145 19.3429 10.5345 18.9024 10.5665 18.6982C10.5946 18.5101 10.6706 18.1417 10.7347 17.8774C10.8028 17.5932 10.9549 17.1407 11.1031 16.7764C11.2472 16.436 11.3833 16.0837 11.4114 15.9956C11.4394 15.9075 11.4874 15.7994 11.5195 15.7554C11.5475 15.7113 11.5715 15.6633 11.5715 15.6473C11.5715 15.6272 11.3153 15.4911 11.003 15.339C10.6867 15.1868 10.2863 14.9666 10.1101 14.8505C9.93392 14.7344 9.63763 14.4861 9.44945 14.298C9.24925 14.0938 9.05707 13.8535 8.98099 13.7134C8.91292 13.5813 8.81683 13.337 8.76478 13.1729C8.69271 12.9406 8.67269 12.7765 8.67269 12.4321C8.67269 12.0237 8.6847 11.9557 8.83285 11.5313C8.93695 11.2189 9.05306 10.9747 9.18919 10.7705C9.2973 10.6064 9.51351 10.3421 9.66966 10.1899C9.82181 10.0338 10.0781 9.8336 10.2302 9.74151C10.3864 9.64942 10.6546 9.5293 10.8308 9.46924C11.007 9.41319 11.3393 9.34912 11.5715 9.3251C11.8037 9.30108 12.092 9.29707 12.2121 9.30909C12.3323 9.3251 12.5405 9.37315 12.6726 9.41719C12.8047 9.46524 12.9929 9.54131 13.093 9.58936C13.1931 9.64141 13.3533 9.74952 13.4494 9.8376C13.5454 9.92168 13.6776 10.0778 13.7376 10.1899C13.8017 10.2981 13.8537 10.4222 13.8537 10.4582C13.8537 10.5223 13.8297 10.5263 13.6656 10.4982C13.5575 10.4822 13.1851 10.4702 12.8327 10.4702C12.2522 10.4702 12.1601 10.4822 11.8518 10.5783C11.6396 10.6464 11.3994 10.7585 11.2112 10.8826C11.047 10.9907 10.8428 11.1549 10.7627 11.247C10.6786 11.3351 10.5625 11.5072 10.5065 11.6193C10.4464 11.7355 10.3743 11.9757 10.3423 12.1519C10.3063 12.328 10.2903 12.5603 10.3023 12.6724C10.3143 12.7805 10.3503 12.9727 10.3864 13.0928C10.4184 13.2129 10.5225 13.4251 10.6106 13.5612C10.7174 13.7294 10.8962 13.9162 11.1471 14.1218C11.3513 14.2939 11.6716 14.5182 11.8558 14.6223C12.04 14.7224 12.2161 14.7944 12.2442 14.7824C12.2722 14.7664 12.3122 14.6983 12.3323 14.6343C12.3523 14.5702 12.4524 14.3981 12.5565 14.2539C12.6606 14.1098 12.8928 13.8335 13.069 13.6373C13.2492 13.4411 13.5174 13.1608 13.6736 13.0127C13.8297 12.8646 14.078 12.6363 14.2341 12.5002C14.3903 12.3681 14.6946 12.1398 14.9148 11.9957C15.135 11.8476 15.5034 11.6314 15.7356 11.5112C15.9678 11.3951 16.4002 11.2029 16.6965 11.0908C16.9928 10.9787 17.3371 10.8306 17.4573 10.7665C17.5774 10.7024 17.8416 10.5183 18.0418 10.3581C18.242 10.202 18.5864 9.91768 18.8026 9.7375C19.0188 9.55332 19.3351 9.30508 19.4993 9.18897C19.6634 9.07286 19.9357 8.90469 20.0998 8.8126C20.264 8.72452 20.5363 8.6044 20.7004 8.54834C20.8646 8.49229 21.245 8.4002 21.5412 8.34414C21.9536 8.26807 22.274 8.23604 22.8826 8.22002C23.359 8.20801 23.8675 8.21602 24.1438 8.24004C24.404 8.26807 24.8885 8.35616 25.2649 8.45225C25.6292 8.54034 26.1257 8.68848 26.366 8.77657C26.6062 8.86465 27.0867 9.08086 27.427 9.25303C27.7673 9.4252 28.2198 9.68545 28.436 9.8376C28.6482 9.98575 29.1527 10.3621 29.5571 10.6664C29.9935 10.9987 30.4019 11.275 30.5701 11.3511C30.7262 11.4231 30.9224 11.5032 31.0105 11.5313C31.0986 11.5593 31.2948 11.6474 31.4509 11.7234C31.6071 11.7995 31.8313 11.9276 31.9514 12.0117C32.0715 12.0918 32.2357 12.2319 32.3118 12.316C32.3918 12.4041 32.532 12.5963 32.6241 12.7524C32.7161 12.9086 32.8283 13.1408 32.8763 13.273C32.9203 13.4051 32.9764 13.6373 32.9964 13.7935C33.0164 13.9496 33.0565 14.0978 33.0805 14.1258C33.1085 14.1538 33.1646 14.1778 33.2046 14.1738C33.2407 14.1738 33.3087 14.1258 33.3528 14.0617C33.3968 14.0017 33.4529 13.8695 33.4729 13.7614C33.4969 13.6573 33.5129 13.4972 33.5129 13.4011C33.5129 13.309 33.4769 13.0688 33.4288 12.8726C33.3848 12.6764 33.3047 12.4321 33.2447 12.332C33.1886 12.2319 32.9964 12.0077 32.8162 11.8275C32.56 11.5753 32.4199 11.4712 32.1516 11.3391C31.9634 11.247 31.7032 11.1469 31.571 11.1148C31.4389 11.0828 31.2267 11.0388 31.1026 11.0147C30.8824 10.9747 30.8583 10.9547 30.6421 10.6984C30.518 10.5503 30.1617 10.1739 29.8534 9.85762C29.541 9.54131 29.1567 9.17696 29.0005 9.04483C28.8404 8.9167 28.6962 8.76856 28.6842 8.71651C28.6709 8.65778 28.7016 8.5697 28.7763 8.45225C28.8644 8.30811 28.9525 8.24004 29.2087 8.11192C29.517 7.95176 29.529 7.94375 29.541 7.79561C29.5491 7.67549 29.525 7.62344 29.4209 7.51934C29.3008 7.40323 29.2728 7.39522 29.0846 7.41123C28.9445 7.42325 28.8364 7.46328 28.7363 7.53535C28.6562 7.59942 28.5 7.77159 28.3879 7.92774C28.2545 8.11459 28.161 8.20801 28.1077 8.20801C28.0636 8.20801 27.9155 8.13994 27.7793 8.05586C27.6392 7.96778 27.3669 7.79561 27.1667 7.67149C26.9665 7.54336 26.5822 7.32715 26.3059 7.18702C26.0296 7.05088 25.5532 6.83467 25.2449 6.70655C24.9366 6.57842 24.5762 6.44229 24.4441 6.39825C24.3119 6.35821 23.9596 6.26211 23.6633 6.19004C23.367 6.11397 22.9146 6.01387 22.6623 5.96983C22.4101 5.92578 22.0658 5.87373 21.9016 5.84971C21.7374 5.82569 21.305 5.78164 20.9407 5.74961C20.5763 5.71758 19.9477 5.68155 19.5393 5.67354C19.1309 5.66153 18.5263 5.66953 18.198 5.68555Z" fill="black"/>
<path id="Vector_8" d="M19.1189 1.40136C18.8106 1.41738 18.3942 1.45341 18.198 1.48144C18.0019 1.50546 17.6655 1.55351 17.4573 1.58955C17.2491 1.62158 16.9528 1.67363 16.7967 1.70566C16.6405 1.73769 16.3002 1.81777 16.0359 1.88583C15.7717 1.9499 15.3473 2.07001 15.095 2.15009C14.8428 2.22617 14.2582 2.43437 13.7937 2.60654C13.3293 2.78271 12.7167 3.03896 12.4324 3.1791C12.1481 3.31523 11.6116 3.5955 11.2393 3.7957C10.8709 3.9999 10.4225 4.25615 10.2423 4.37226C10.0581 4.48437 9.60166 4.80468 9.2293 5.08496C8.84893 5.36923 8.2043 5.90976 7.77188 6.31015C7.34346 6.70253 6.70283 7.34316 6.35049 7.73154C5.99414 8.11591 5.52568 8.67646 5.30147 8.97275C5.07725 9.26904 4.75293 9.72548 4.57676 9.98974C4.39658 10.254 4.09228 10.7585 3.9001 11.1108C3.70391 11.4632 3.39561 12.0678 3.21943 12.4521C3.03926 12.8365 2.81104 13.361 2.71094 13.6133C2.60684 13.8655 2.41465 14.378 2.28252 14.7544C2.14639 15.1308 1.93018 15.8515 1.80205 16.356C1.67393 16.8604 1.53379 17.4851 1.48574 17.7373C1.4417 17.9895 1.36563 18.486 1.31758 18.8384C1.2415 19.3709 1.22949 19.6592 1.22949 20.5601C1.22949 21.1566 1.25352 21.8213 1.27754 22.0415C1.30156 22.2617 1.34561 22.586 1.36562 22.7622C1.38965 22.9384 1.46172 23.3988 1.52578 23.7832C1.58984 24.1676 1.69795 24.7081 1.76201 24.9844C1.83008 25.2606 1.99424 25.8172 2.13037 26.2256C2.2665 26.634 2.45469 27.1665 2.55078 27.4067C2.65088 27.647 2.8751 28.1515 3.05527 28.5278C3.23145 28.9042 3.55977 29.5048 3.77598 29.8691C3.99619 30.2335 4.24844 30.6379 4.33652 30.77C4.42461 30.9021 4.6168 31.1624 4.76094 31.3506C4.90508 31.5388 5.19736 31.9071 5.40557 32.1714C5.61377 32.4356 6.02217 32.9041 6.31045 33.2124C6.59873 33.5207 7.05918 33.9892 7.33145 34.2534C7.60371 34.5217 7.94404 34.834 8.08818 34.9541C8.23232 35.0702 8.43652 35.2344 8.54863 35.3144C8.65674 35.3945 8.98105 35.6227 9.26934 35.8229C9.55762 36.0191 10.0861 36.3635 10.4505 36.5837C10.8148 36.8039 11.4154 37.1362 11.7918 37.3284C12.1682 37.5166 12.6526 37.7528 12.8729 37.8489C13.0931 37.949 13.4814 38.1012 13.7337 38.1893C13.9859 38.2813 14.4744 38.4335 14.8147 38.5336C15.1551 38.6337 15.7517 38.7858 16.136 38.8739C16.5204 38.958 16.9528 39.0501 17.097 39.0701C17.2411 39.0941 17.6015 39.1422 17.8978 39.1742C18.194 39.2102 18.7546 39.2543 19.139 39.2783C19.5233 39.3023 20.244 39.3224 20.7405 39.3224C21.237 39.3264 21.8856 39.3063 22.1819 39.2823C22.4782 39.2583 22.8666 39.2183 23.0428 39.1982C23.2189 39.1742 23.5353 39.1262 23.7435 39.0941C23.9517 39.0581 24.3841 38.982 24.7044 38.918C25.0247 38.8539 25.5532 38.7258 25.8855 38.6337C26.2139 38.5456 26.6583 38.4175 26.8665 38.3494C27.0747 38.2853 27.5872 38.0892 28.0076 37.917C28.428 37.7448 28.8845 37.5486 29.0286 37.4846C29.1728 37.4205 29.5411 37.2323 29.8494 37.0682C30.1577 36.904 30.6782 36.5997 31.0105 36.3955C31.3389 36.1953 31.7192 35.9551 31.8514 35.863C31.9835 35.7749 32.1997 35.6187 32.3318 35.5186C32.464 35.4185 32.7963 35.1463 33.0726 34.9141C33.3448 34.6818 33.9534 34.1053 34.4259 33.6328L35.2787 32.772C38.5499 32.796 39.5389 32.792 39.5909 32.776C39.639 32.764 39.675 32.7279 39.667 32.6959C39.663 32.6639 39.2786 32.2835 38.8182 31.8511C38.3577 31.4186 37.8412 30.9542 37.6771 30.8221C37.5129 30.6899 37.2046 30.4937 36.9964 30.3896C36.7882 30.2855 36.3277 30.0934 35.9754 29.9692C35.623 29.8411 35.0104 29.6329 34.6141 29.5048C34.2177 29.3727 33.6852 29.2125 33.4329 29.1444C33.1807 29.0764 32.9284 28.9963 32.8724 28.9683L32.7723 28.9162C32.9564 28.8802 33.1646 28.8882 33.3528 28.9082C33.541 28.9322 34.3218 28.9643 35.0945 28.9843C35.8633 29.0043 37.3567 29.0363 38.4058 29.0563C40.2916 29.0884 40.3156 29.0884 40.3437 29.0083C40.3677 28.9402 40.2796 28.8361 39.8151 28.3917C39.5108 28.0994 39.2025 27.8231 39.1385 27.7831C39.0224 27.715 38.8662 27.711 35.8953 27.7351C33.7292 27.7511 32.532 27.7431 31.9915 27.711C31.5631 27.687 31.0586 27.631 30.8704 27.5909C30.6822 27.5509 30.3419 27.4548 30.1097 27.3747C29.8774 27.2986 29.5291 27.1545 29.3289 27.0544C29.1287 26.9583 28.7523 26.7341 28.4881 26.5579C28.1437 26.3297 27.8635 26.0935 27.5071 25.7411C27.2269 25.4688 26.9306 25.1445 26.8385 25.0244C26.7504 24.9043 26.6062 24.6601 26.5182 24.4839C26.4261 24.3077 26.314 24.0274 26.2619 23.8633C26.1898 23.623 26.1698 23.4749 26.1738 23.1025C26.1738 22.8503 26.1979 22.562 26.2219 22.4619C26.2459 22.3618 26.318 22.1656 26.374 22.0215C26.4301 21.8773 26.5021 21.7332 26.5302 21.7012C26.5702 21.6531 26.7344 21.6331 27.2749 21.6131C27.7153 21.5931 28.0917 21.557 28.3079 21.505C28.4961 21.4649 28.7644 21.3889 28.9085 21.3408C29.0526 21.2928 29.3129 21.1887 29.4891 21.1046C29.6652 21.0245 29.9455 20.8643 30.1097 20.7522C30.2738 20.6441 30.5901 20.3919 30.8063 20.1957C31.0266 19.9995 31.3028 19.7152 31.4189 19.5591C31.5391 19.4029 31.7272 19.0986 31.8354 18.8784C31.9475 18.6582 32.0476 18.4019 32.0636 18.3059C32.0836 18.1817 32.0796 18.1377 32.0396 18.1377C32.0155 18.1377 31.9515 18.1937 31.8994 18.2578C31.8514 18.3259 31.7393 18.414 31.6512 18.458C31.5631 18.498 31.3829 18.5421 31.2508 18.5581C31.1026 18.5741 30.9185 18.5661 30.7703 18.5341C30.5741 18.494 30.5021 18.454 30.3579 18.3099C30.2618 18.2138 30.1217 17.9935 30.0336 17.8094C29.9455 17.6252 29.8574 17.381 29.8334 17.2688C29.8094 17.1527 29.7894 16.9846 29.7894 16.8965C29.7894 16.8084 29.8174 16.6803 29.8494 16.6162C29.8895 16.5361 30.0656 16.396 30.3579 16.2038C30.6062 16.0396 30.9305 15.7994 31.0786 15.6633C31.2748 15.4871 31.4029 15.399 31.5351 15.367C31.6592 15.331 31.7433 15.2789 31.7833 15.2148C31.8354 15.1268 31.8394 15.0747 31.7953 14.8144C31.7593 14.5902 31.7593 14.5021 31.7913 14.4741C31.8153 14.4501 31.9114 14.398 31.9995 14.354C32.1076 14.3019 32.1917 14.2179 32.2478 14.1138C32.3158 13.9856 32.3318 13.8815 32.3318 13.6133C32.3318 13.369 32.3078 13.1929 32.2397 12.9927C32.1837 12.8165 32.0956 12.6443 31.9995 12.5362C31.9194 12.4401 31.7793 12.324 31.6912 12.28C31.6031 12.2359 31.431 12.1679 31.3108 12.1238C31.1907 12.0838 30.9745 12.0317 30.8304 12.0077C30.6862 11.9837 30.426 11.9517 30.2498 11.9316C30.0736 11.9156 29.6252 11.9156 29.2488 11.9316C28.8725 11.9477 28.424 11.9917 28.2479 12.0317C28.0717 12.0678 27.7394 12.1799 27.5071 12.276C27.2749 12.3761 26.9666 12.5442 26.8185 12.6443C26.6743 12.7484 26.4221 12.9486 26.2579 13.0968C26.0897 13.2449 25.9256 13.4331 25.8775 13.5372C25.8255 13.6333 25.7854 13.7734 25.7854 13.8455C25.7854 13.9336 25.8255 14.0177 25.9136 14.1178C26.0177 14.2299 26.0857 14.2659 26.2259 14.2819C26.39 14.3019 26.4221 14.2899 26.5862 14.1538C26.6863 14.0737 26.8024 14.0017 26.8465 13.9936C26.8905 13.9856 27.0627 13.9496 27.2269 13.9136C27.391 13.8775 27.5712 13.8455 27.6272 13.8415C27.7193 13.8335 27.7273 13.8495 27.7394 14.0337C27.7514 14.2179 27.7353 14.2539 27.5672 14.4741C27.4671 14.6062 27.375 14.7624 27.367 14.8265C27.355 14.8905 27.375 14.9826 27.415 15.0507C27.4551 15.1107 27.6112 15.2749 27.7674 15.411C27.9235 15.5512 28.2919 15.8114 28.5882 15.9876C29.0246 16.2559 29.1327 16.3359 29.1407 16.416C29.1487 16.4721 29.0847 16.6562 28.9926 16.8364C28.8965 17.0326 28.7363 17.2648 28.5802 17.433C28.44 17.5851 28.2278 17.7773 28.1077 17.8574C27.9876 17.9415 27.7714 18.0656 27.6272 18.1377C27.4831 18.2098 27.2589 18.3099 27.1268 18.3619C26.9946 18.41 26.7264 18.482 26.5262 18.5181C26.326 18.5541 26.0417 18.5981 25.8855 18.6222C25.7294 18.6422 25.5732 18.6662 25.5332 18.6782C25.4972 18.6902 25.4651 18.7263 25.4651 18.7583C25.4651 18.8023 25.5292 18.8264 25.7134 18.8424C25.8535 18.8544 26.354 18.8584 26.8265 18.8464C27.2989 18.8384 27.9115 18.7983 28.1878 18.7623C28.4641 18.7263 28.8604 18.6582 29.0687 18.6101L29.449 18.5221C30.1417 18.8744 30.3059 18.9785 30.3019 19.0105C30.2938 19.0426 30.1097 19.1227 29.8694 19.1947C29.6372 19.2668 29.2248 19.4069 28.9485 19.507C28.6723 19.6071 28.1958 19.7553 27.8875 19.8313C27.5792 19.9114 27.0467 20.0315 26.7063 20.0956C26.366 20.1597 25.9336 20.2277 25.7454 20.2437C25.5452 20.2598 25.2329 20.2518 24.9847 20.2237C24.7524 20.1957 24.3841 20.1356 24.1639 20.0916C23.9437 20.0476 23.5473 19.9314 23.283 19.8353C23.0187 19.7393 22.6544 19.5711 22.4702 19.467C22.29 19.3629 21.9617 19.1267 21.7415 18.9385C21.5133 18.7463 21.3411 18.5661 21.3411 18.5301C21.3411 18.478 21.5613 18.3499 22.1499 18.0616C22.5983 17.8454 23.1068 17.6012 23.283 17.5171C23.4592 17.437 23.6714 17.3169 23.7515 17.2528C23.8355 17.1888 23.9116 17.1047 23.9236 17.0686C23.9356 17.0286 23.9276 16.9485 23.9036 16.8885C23.8836 16.8244 23.8275 16.7603 23.7835 16.7363C23.7234 16.7043 23.6394 16.7203 23.4512 16.7924C23.315 16.8444 22.9587 17.0006 22.6624 17.1367C22.3661 17.2728 21.9057 17.469 21.6414 17.5771C21.3771 17.6852 20.9808 17.8534 20.7605 17.9575C20.5403 18.0616 20.0158 18.3099 19.5994 18.5181C19.183 18.7223 18.6865 18.9625 18.4983 19.0506C18.3102 19.1387 17.9698 19.2948 17.7376 19.3949C17.5054 19.499 17.165 19.6672 16.9769 19.7713C16.7887 19.8714 16.6045 19.9875 16.5645 20.0275C16.5244 20.0716 16.4964 20.1597 16.4964 20.2598C16.4964 20.3839 16.5244 20.4479 16.6165 20.54C16.7166 20.6401 16.7606 20.6561 16.8647 20.6361C16.9368 20.6241 17.6255 20.3038 18.3982 19.9194C19.167 19.5351 19.8116 19.2187 19.8276 19.2187C19.8477 19.2187 20.0799 19.1106 20.3481 18.9785C20.6204 18.8464 20.8646 18.7383 20.8887 18.7383C20.9167 18.7383 20.9848 18.8063 21.0368 18.8904C21.0849 18.9705 21.237 19.1387 21.3651 19.2588C21.4973 19.3789 21.7375 19.5871 21.9017 19.7232C22.0658 19.8554 22.3061 20.0315 22.4302 20.1116C22.5583 20.1917 22.6624 20.2878 22.6624 20.3198C22.6624 20.3559 22.6144 20.3879 22.5303 20.3959C22.4622 20.4079 22.3381 20.4239 22.262 20.4319C22.1859 20.4439 21.9897 20.488 21.8296 20.536C21.6734 20.5841 21.5413 20.6441 21.5413 20.6722C21.5413 20.6962 21.6534 20.7522 21.7896 20.7923C21.9297 20.8363 22.5823 21.0085 23.243 21.1847C23.9036 21.3568 24.4722 21.525 24.5042 21.561C24.5562 21.6131 24.5562 21.6491 24.4882 21.8693C24.4281 22.0695 24.4121 22.2457 24.4121 22.7422C24.4121 23.2627 24.4281 23.4509 24.5202 23.9033C24.5803 24.1996 24.6764 24.588 24.7324 24.7642C24.7885 24.9403 24.9326 25.3207 25.0527 25.605C25.1729 25.8893 25.3811 26.3337 25.5132 26.5859C25.6453 26.8382 25.9056 27.2706 26.0938 27.5469C26.2859 27.8231 26.5542 28.1995 26.6983 28.3877C26.8425 28.5759 27.2309 29.0003 27.5632 29.3286C27.8955 29.6609 28.36 30.0853 28.5882 30.2735C28.8204 30.4617 29.1327 30.71 29.2889 30.8181C29.445 30.9302 29.7974 31.1664 30.0776 31.3466C30.3619 31.5268 30.8104 31.783 31.0786 31.9191C31.3509 32.0593 31.6952 32.2274 31.8434 32.2915C32.0075 32.3636 32.1116 32.4316 32.1036 32.4637C32.0956 32.4917 31.9314 32.5878 31.7312 32.6759C31.5311 32.764 31.2107 32.9001 31.0105 32.9802C30.8103 33.0562 30.3619 33.2244 30.0096 33.3485C29.6572 33.4767 29.2088 33.6328 29.0086 33.6929C28.8084 33.7529 28.404 33.869 28.1077 33.9531C27.8114 34.0372 27.4431 34.1373 27.2869 34.1733C27.1308 34.2094 26.8185 34.2734 26.5862 34.3135C26.354 34.3575 25.9576 34.4296 25.7054 34.4776C25.4531 34.5217 25.1528 34.5777 25.0447 34.5977C24.9326 34.6218 24.7084 34.6538 24.5442 34.6778C24.3801 34.6978 24.1198 34.7299 23.9637 34.7539C23.8075 34.7739 23.279 34.822 22.7825 34.854C22.286 34.89 21.5854 34.9141 21.221 34.9101C20.8566 34.9101 20.2801 34.89 19.9397 34.874C19.5994 34.854 19.131 34.818 18.8987 34.7939C18.6665 34.7699 18.3062 34.7339 18.0979 34.7099C17.8897 34.6898 17.5374 34.6418 17.3172 34.6098C17.097 34.5777 16.7206 34.5137 16.4764 34.4696C16.2321 34.4256 15.7757 34.3335 15.4554 34.2734C15.1351 34.2094 14.5064 34.0532 14.054 33.9331C13.6016 33.809 12.9089 33.6008 12.5125 33.4646C12.1161 33.3285 11.6036 33.1403 11.3714 33.0402C11.1392 32.9441 10.6707 32.7239 10.3304 32.5558C9.99004 32.3876 9.34141 32.0152 8.89297 31.731C8.44854 31.4427 7.84395 31.0223 7.55566 30.79C7.26338 30.5578 6.81094 30.1694 6.54668 29.9252C6.28242 29.681 5.92207 29.3286 5.7459 29.1444C5.56973 28.9602 5.29746 28.656 5.14131 28.4678C4.98516 28.2796 4.74092 27.9673 4.59678 27.7671C4.44863 27.5669 4.19639 27.1825 4.03223 26.9062C3.86807 26.63 3.67188 26.2816 3.5958 26.1255C3.51572 25.9693 3.37959 25.621 3.2835 25.3447C3.17939 25.0284 3.09932 24.7041 3.07129 24.4639C3.04727 24.2557 3.02725 23.8393 3.02725 23.543C3.02725 23.2467 3.04727 22.8583 3.07129 22.6821C3.09531 22.506 3.15137 22.1376 3.20342 21.8613C3.25146 21.5851 3.37158 21.0445 3.46768 20.6602C3.56777 20.2758 3.6999 19.6992 3.76396 19.3789C3.82803 19.0586 3.89209 18.7062 3.90811 18.5981C3.92012 18.49 3.97617 18.2018 4.02822 17.9575C4.08027 17.7133 4.16436 17.3089 4.22041 17.0566C4.27246 16.8044 4.34453 16.416 4.38457 16.1958C4.42061 15.9756 4.46865 15.7193 4.48867 15.6232C4.50869 15.5311 4.52471 15.371 4.52471 15.2669C4.52471 15.1588 4.54473 14.9946 4.56875 14.8945C4.60078 14.7504 4.59678 14.7023 4.54873 14.6543C4.49668 14.6022 4.47666 14.6102 4.37656 14.7184C4.3165 14.7864 4.18838 14.9866 4.09629 15.1588C4.0042 15.331 3.89609 15.4951 3.85606 15.5191C3.79199 15.5552 3.78799 15.5472 3.8 15.4591C3.80801 15.403 3.94014 15.0387 4.08828 14.6543C4.23643 14.2699 4.5167 13.6373 4.71289 13.2529C4.90908 12.8686 5.18535 12.356 5.3335 12.1118C5.47764 11.8676 5.70586 11.4832 5.83799 11.251C5.97412 11.0187 6.19434 10.6744 6.33447 10.4822C6.47461 10.29 6.70283 9.96572 6.84697 9.76552C6.99111 9.56533 7.21533 9.27304 7.34746 9.11689C7.47959 8.96074 7.7959 8.6124 8.04814 8.33613C8.30039 8.06386 8.68076 7.6915 8.88897 7.50732C9.09717 7.32714 9.44951 7.03486 9.66973 6.85869C9.88994 6.68251 10.3384 6.3582 10.6707 6.13798C10.999 5.91777 11.4795 5.62148 11.7317 5.47734C11.984 5.3332 12.4885 5.06093 12.8528 4.87675C13.2172 4.69257 13.7577 4.44433 14.054 4.32822C14.3503 4.2121 14.8027 4.04794 15.055 3.95986C15.3072 3.87578 15.8678 3.71562 16.2962 3.60751C16.7246 3.49941 17.2932 3.37529 17.5574 3.32724C17.8217 3.2832 18.2741 3.21914 18.5584 3.1791C18.9388 3.13105 19.3832 3.11103 20.2 3.10703C21.0328 3.10703 21.4772 3.12304 21.9217 3.17509C22.25 3.21513 22.6944 3.27519 22.9026 3.30722C23.1108 3.33925 23.5072 3.41132 23.7835 3.46738C24.0598 3.51943 24.5202 3.63154 24.8045 3.70761C25.0888 3.78769 25.5052 3.91582 25.7254 3.99189C25.9456 4.06796 26.4141 4.24414 26.7664 4.38427C27.1187 4.52441 27.6433 4.74863 27.9275 4.88476C28.2118 5.02089 28.6643 5.24912 28.9285 5.39326C29.1928 5.5414 29.6172 5.78564 29.8694 5.94179C30.1217 6.09794 30.6262 6.44628 30.9905 6.72255C31.3549 6.99482 31.7593 7.31113 31.8914 7.42324C32.0235 7.53535 32.3478 7.83164 32.6121 8.07988C32.8764 8.33212 33.2607 8.7205 33.4649 8.94472C33.6731 9.16494 33.9975 9.54531 34.1856 9.78955C34.3778 10.0338 34.7502 10.5543 35.0145 10.9507C35.2827 11.3471 35.567 11.7955 35.6511 11.9517C35.7352 12.1078 35.9073 12.4201 36.0354 12.6523C36.1636 12.8846 36.3678 13.317 36.4879 13.6133C36.608 13.9096 36.7882 14.378 36.8923 14.6543C36.9924 14.9306 37.1125 15.2789 37.1565 15.4351C37.2006 15.5912 37.3127 16.0036 37.4008 16.356C37.4889 16.7083 37.585 17.1487 37.621 17.3369C37.653 17.5251 37.7251 18.0096 37.7771 18.418C37.8292 18.8264 37.8933 19.447 37.9173 19.7993C37.9373 20.1517 37.9573 20.7723 37.9573 21.1807C37.9573 21.6571 37.9293 22.1656 37.8772 22.602C37.8332 22.9784 37.7651 23.4829 37.7211 23.7231C37.6771 23.9634 37.613 24.2797 37.581 24.4238C37.5489 24.568 37.4688 24.9283 37.3968 25.2246C37.3287 25.5209 37.2847 25.7892 37.2967 25.8172C37.3127 25.8532 37.5489 25.8652 38.2856 25.8652C38.8222 25.8652 39.2826 25.8492 39.3106 25.8332C39.3387 25.8172 39.3947 25.669 39.4388 25.5049C39.4828 25.3407 39.5829 24.9003 39.659 24.5239C39.7351 24.1476 39.8151 23.7191 39.8392 23.563C39.8632 23.4068 39.9112 23.0305 39.9393 22.7222C39.9713 22.4139 40.0073 21.8093 40.0233 21.3809C40.0394 20.8443 40.0273 20.2277 39.9833 19.4189C39.9433 18.7703 39.8872 18.0736 39.8552 17.8774C39.8191 17.6812 39.7391 17.2929 39.679 17.0166C39.6149 16.7403 39.4628 16.1477 39.3427 15.6953C39.2226 15.2429 38.9943 14.5302 38.8382 14.1138C38.682 13.6974 38.4098 13.0487 38.2296 12.6724C38.0494 12.296 37.7611 11.7394 37.585 11.4311C37.4088 11.1228 37.1365 10.6824 36.9844 10.4502C36.8282 10.218 36.556 9.83359 36.3758 9.58935C36.1956 9.34511 35.8633 8.9247 35.6311 8.64843C35.4028 8.37216 34.9904 7.91572 34.7142 7.63144C34.4379 7.34716 33.9534 6.88271 33.6331 6.59443C33.3128 6.31015 32.8924 5.9458 32.6922 5.78964C32.492 5.62949 32.1316 5.35722 31.8914 5.18105C31.6512 5.00087 31.2147 4.70458 30.9305 4.5164C30.6462 4.32822 30.1297 4.01992 29.7894 3.83574C29.449 3.64755 28.8965 3.36728 28.5682 3.21113C28.2358 3.05498 27.6713 2.81074 27.3069 2.6706C26.9426 2.52646 26.4301 2.34628 26.1658 2.27021C25.9016 2.19013 25.4691 2.06601 25.2049 1.98994C24.9406 1.91386 24.5883 1.82177 24.4241 1.78974C24.26 1.75371 23.9637 1.69765 23.7635 1.66162C23.5633 1.62558 23.295 1.58154 23.1629 1.56152C23.0308 1.5415 22.7625 1.50546 22.5623 1.48144C22.3621 1.45742 21.9057 1.42138 21.5413 1.40136C21.177 1.38134 20.6084 1.36533 20.2801 1.36933C19.9478 1.36933 19.4272 1.38535 19.1189 1.40136Z" fill="black"/>
</g>
</svg>
